<?xml version="1.0" encoding="UTF-8" standalone="no"?>
<!-- Created with Inkscape (http://www.inkscape.org/) -->

<svg
   width="210mm"
   height="297mm"
   viewBox="0 0 210 297"
   version="1.1"
   id="svg1"
   xml:space="preserve"
   inkscape:version="1.3 (0e150ed6c4, 2023-07-21)"
   sodipodi:docname="Controller_Index.svg"
   xmlns:inkscape="http://www.inkscape.org/namespaces/inkscape"
   xmlns:sodipodi="http://sodipodi.sourceforge.net/DTD/sodipodi-0.dtd"
   xmlns="http://www.w3.org/2000/svg"
   xmlns:svg="http://www.w3.org/2000/svg"><sodipodi:namedview
     id="namedview1"
     pagecolor="#ffffff"
     bordercolor="#000000"
     borderopacity="0.25"
     inkscape:showpageshadow="2"
     inkscape:pageopacity="0.0"
     inkscape:pagecheckerboard="0"
     inkscape:deskcolor="#d1d1d1"
     inkscape:document-units="mm"
     inkscape:zoom="1.5004889"
     inkscape:cx="284.24068"
     inkscape:cy="284.90713"
     inkscape:window-width="2560"
     inkscape:window-height="1369"
     inkscape:window-x="1912"
     inkscape:window-y="-8"
     inkscape:window-maximized="1"
     inkscape:current-layer="layer1" /><defs
     id="defs1" /><g
     inkscape:label="Ebene 1"
     inkscape:groupmode="layer"
     id="layer1"><g
       id="g51"
       inkscape:export-filename="Controller_Index.png"
       inkscape:export-xdpi="96"
       inkscape:export-ydpi="96"><rect
         style="fill:#ffffff;fill-opacity:1;stroke:none;stroke-width:0.4;stroke-linecap:butt;stroke-linejoin:miter;stroke-dasharray:none;stroke-opacity:1"
         id="rect51"
         width="96.100616"
         height="102.62489"
         x="27.252079"
         y="24.077085" /><g
         id="g48"
         transform="rotate(35.261374,91.189704,103.98119)"><path
           style="fill:none;stroke:#000000;stroke-width:0.5;stroke-linecap:square;stroke-dasharray:none;stroke-opacity:1"
           d="m 62.289355,74.183875 c -0.491057,0.08011 -0.979113,0.483083 -1.276131,0.882249 -0.298053,0.400558 -0.590951,1.051156 -0.311714,1.46505 0.160105,0.237315 0.320185,0.286523 0.550063,0.306042 0.611188,0.0519 1.268104,-0.217379 1.685141,-0.667184 0.380428,-0.410319 0.861733,-1.212502 0.590363,-1.701834 -0.19967,-0.360043 -0.831391,-0.350609 -1.237722,-0.284323 z"
           id="path15"
           sodipodi:nodetypes="sssssss" /><path
           style="fill:none;stroke:#000000;stroke-width:0.5;stroke-linecap:square;stroke-dasharray:none;stroke-opacity:1"
           d="m 66.436864,72.515429 c -0.371782,0.22302 -0.747136,0.581293 -0.997643,0.935138 -0.28192,0.398214 -0.528868,0.812895 -0.478264,1.298171 0.03638,0.348839 0.338731,0.671327 0.654595,0.823778 0.598882,0.28905 1.321627,0.02453 1.93986,-0.220414 0.835204,-0.330904 1.174102,-0.917091 1.704804,-1.641948 0.156061,-0.213156 0.387506,-0.91901 0.165476,-1.237081 -0.255459,-0.365962 -0.715595,-0.433052 -1.160575,-0.467408 -0.603354,-0.04658 -1.309312,0.198467 -1.828253,0.509764 z"
           id="path16"
           sodipodi:nodetypes="sssssssss" /><path
           style="fill:none;stroke:#000000;stroke-width:0.5;stroke-linecap:square;stroke-dasharray:none;stroke-opacity:1"
           d="m 71.475755,69.979534 c -0.08623,0.401899 0.0081,0.945973 0.342884,1.184508 0.499898,0.356211 1.276035,0.153822 1.870277,4e-6 0.571325,-0.147886 1.123981,-0.473523 1.558565,-0.872796 0.35692,-0.327919 0.61873,-0.77975 0.748109,-1.246852 0.07489,-0.270362 0.151401,-0.605444 0,-0.841624 -0.228328,-0.356182 -0.732159,-0.489812 -1.153337,-0.529912 -0.607111,-0.0578 -1.142269,0.165371 -1.661045,0.485991 -0.696009,0.430158 -1.5338,1.020681 -1.705453,1.820681 z"
           id="path17"
           sodipodi:nodetypes="sssssssss" /><path
           style="fill:none;stroke:#000000;stroke-width:0.499999;stroke-linecap:square;stroke-dasharray:none;stroke-opacity:1"
           d="m 65.27942,75.440268 0.477025,0.972975 c 0,0 0.384337,0.126095 0.919474,0.133073 0.470009,0.0061 1.077722,-0.09745 1.351169,-0.215403 0.813529,-0.350937 1.364154,-0.845425 1.806073,-1.613342 0.211104,-0.366833 0.239885,-1.246852 0.239885,-1.246852 l -0.510294,-0.796757"
           id="path18"
           sodipodi:nodetypes="ccssscc" /><path
           style="fill:none;stroke:#000000;stroke-width:0.499999;stroke-linecap:butt;stroke-dasharray:none;stroke-opacity:1"
           d="m 71.789358,71.141839 0.528021,1.113199 c 0,0 1.045075,0.250351 1.558565,0.155855 0.84545,-0.155585 1.706394,-0.537987 2.306675,-1.153337 0.392737,-0.402596 0.716938,-1.527395 0.716938,-1.527395 L 76.008341,68.2193"
           id="path19"
           sodipodi:nodetypes="ccsscc" /><path
           style="fill:none;stroke:#000000;stroke-width:0.499999;stroke-linecap:butt;stroke-dasharray:none;stroke-opacity:1"
           d="m 56.170655,74.717568 c 0,0 -0.556761,0.139914 -0.841627,0.155855 -0.436826,0.02445 -0.882614,0.0037 -1.309192,-0.09351 -0.991424,-0.225878 -1.977143,-0.578754 -2.836588,-1.122167 -0.720782,-0.455739 -1.568822,-0.947875 -1.870276,-1.745591 -0.151308,-0.400395 -0.102908,-0.915517 0.124685,-1.278025 0.297519,-0.473886 0.833799,-0.746078 1.345712,-0.97198 0.643746,-0.284079 1.420288,-0.609074 2.1143,-0.493071 1.029324,0.17205 1.752744,1.241746 2.556044,1.807935 0.236889,0.166966 0.553347,0.188387 0.841627,0.218199 0.217287,0.02247 0.654597,-0.03117 0.654597,-0.03117"
           id="path20"
           sodipodi:nodetypes="csssssssssc" /><path
           style="fill:none;stroke:#000000;stroke-width:0.499999;stroke-linecap:butt;stroke-dasharray:none;stroke-opacity:1"
           d="m 53.988665,69.823676 c -0.46317,-0.187586 -1.13164,-0.27092 -1.68325,-0.155856 -0.569059,0.118704 -1.202945,0.359285 -1.527395,0.841624 -0.198535,0.29515 -0.280911,0.740256 -0.124684,1.059823 0.202701,0.414632 0.735828,0.608811 1.18451,0.716941 0.708888,0.170839 1.512989,0.13422 2.18199,-0.155858 0.350778,-0.152097 0.688548,-0.428928 0.841623,-0.77928 0.08736,-0.199947 0.0835,-0.453007 0,-0.654597 -0.157451,-0.380121 -0.805252,-0.845442 -0.872794,-0.872797 z"
           id="path21"
           sodipodi:nodetypes="sssssssss" /><path
           style="fill:none;stroke:#000000;stroke-width:0.499999;stroke-linecap:butt;stroke-dasharray:none;stroke-opacity:1"
           d="m 50.565334,71.158043 -0.08438,1.060638 c 0,0 0.781345,1.068795 2.305329,1.002989 1.003357,-0.04333 2.103212,-0.523416 2.346757,-1.21098 l -0.115716,-0.971333"
           id="path22"
           sodipodi:nodetypes="ccscc" /><path
           style="fill:none;stroke:#000000;stroke-width:0.499999;stroke-linecap:square;stroke-dasharray:none;stroke-opacity:1"
           d="m 53.614608,74.811082 c 0,0 -0.23774,0.285812 -0.405226,0.342884 -0.649786,0.22142 -1.399289,0.102107 -2.057304,-0.09351 -0.647377,-0.192454 -1.165464,-0.682841 -1.745594,-1.028652 -0.708686,-0.422443 -1.327403,-1.047708 -2.119646,-1.278023 -0.858286,-0.249515 -1.810532,-0.26646 -2.680732,-0.06234 -1.108598,0.26004 -2.112767,0.906383 -3.023613,1.589735 -0.658334,0.493907 -1.322821,1.052888 -1.714421,1.776765 -0.578078,1.068583 -0.692419,2.344348 -0.810453,3.553526 -0.136338,1.396685 -0.02251,2.812541 0.124685,4.208124 0.359941,3.412671 1.2404,6.918399 1.784333,10.396207 0.307622,1.838062 0.88541,3.677731 1.270454,5.501147 0.530061,2.510155 1.745267,7.532595 1.745267,7.532595"
           id="path23"
           sodipodi:nodetypes="csssssssssssc" /><path
           style="fill:none;stroke:#000000;stroke-width:0.499999;stroke-linecap:square;stroke-dasharray:none;stroke-opacity:1"
           d="m 49.24528,71.974495 c 0,0 -2.177325,-1.476506 -3.392322,-1.558565 -1.032786,-0.06975 -2.056475,0.432292 -2.961272,0.93514 -1.088525,0.604956 -2.096434,1.429844 -2.836585,2.43136 -0.835215,1.13015 -1.393266,2.4902 -1.68325,3.865239 -0.430968,2.043553 -0.250228,4.188447 -0.03117,6.265429 0.301197,2.855774 0.789289,5.698328 1.413355,8.50131 0.847439,3.806259 1.812716,7.276637 2.803572,11.048102 0.405125,1.54202 1.371536,4.58218 1.371536,4.58218"
           id="path24"
           sodipodi:nodetypes="csssssssc" /><path
           style="fill:none;stroke:#000000;stroke-width:0.499999;stroke-linecap:butt;stroke-dasharray:none;stroke-opacity:1"
           d="m 53.053524,69.169078 c 0,0 -0.902699,-0.310955 -1.371536,-0.311711 -0.713391,-0.0012 -1.396085,0.295743 -2.088475,0.467569 -1.494758,0.370946 -4.551008,1.122165 -4.551008,1.122165"
           id="path25"
           sodipodi:nodetypes="cssc" /><path
           style="fill:none;stroke:#000000;stroke-width:0.499999;stroke-linecap:square;stroke-dasharray:none;stroke-opacity:1"
           d="m 64.3687,62.934823 c 0,0 -2.781811,2.20123 -3.865237,3.584696 -0.886067,1.131451 -1.599264,2.420443 -2.088478,3.771726 -0.414137,1.143909 -0.840974,2.378072 -0.685768,3.584699 0.126292,0.981841 0.570757,1.9881 1.278025,2.680729 0.920342,0.901293 2.255648,1.355605 3.522353,1.589736 1.750154,0.32349 3.590149,0.06191 5.33029,-0.311714 2.250834,-0.483273 4.425823,-1.370488 6.452458,-2.46253 2.332935,-1.25709 4.587798,-2.761461 6.452454,-4.644522 1.789038,-1.806697 3.653263,-3.802298 4.39515,-6.234255 0.415449,-1.361872 0.561284,-3.006135 -0.09351,-4.270468 -0.731106,-1.411684 -2.314151,-2.37052 -3.834069,-2.836587 -1.660416,-0.509149 -3.489814,-0.05065 -5.205603,0.218199 -1.661089,0.260277 -3.295103,0.732474 -4.862721,1.340366 -0.597888,0.231849 -1.714421,0.872797 -1.714421,0.872797 0,0 1.181465,-0.14496 1.714419,0.06234 0.343464,0.133595 0.750226,0.359923 0.841625,0.71694 0.115818,0.452402 -9.3e-4,1.080993 -0.234243,1.485525 -0.321055,0.556664 -0.829882,0.996153 -1.303847,1.430098 -0.684421,0.62663 -1.525306,1.200745 -2.350757,1.624688 -0.798357,0.410027 -1.892079,0.909391 -2.657123,0.95718 -0.640461,0.04001 -1.206939,-0.04299 -1.589735,-0.416572 -0.278729,-0.272021 -0.234907,-0.766823 -0.187028,-1.153337 0.07095,-0.572735 0.685766,-1.589734 0.685766,-1.589734 z"
           id="path26"
           sodipodi:nodetypes="cssssssssssssscssssssssc" /><path
           style="fill:none;stroke:#000000;stroke-width:0.499999;stroke-linecap:square;stroke-dasharray:none;stroke-opacity:1"
           d="m 80.160899,61.043726 c -0.298481,-0.02022 -0.680162,0.124562 -0.826038,0.385746 -0.0775,0.138767 -0.03333,0.371786 0.09351,0.467569 0.207957,0.15704 0.583581,0.117209 0.818246,0.0039 0.191984,-0.0927 0.432442,-0.323507 0.397435,-0.533808 -0.029,-0.174239 -0.306919,-0.311469 -0.483153,-0.323407 z"
           id="path27"
           sodipodi:nodetypes="ssssss" /><path
           style="fill:none;stroke:#000000;stroke-width:0.499999;stroke-linecap:butt;stroke-dasharray:none;stroke-opacity:1"
           d="m 71.631611,63.277707 -7.668136,4.613349 c 0,0 -1.095391,0.871276 -1.496221,1.43388 -0.41814,0.5869 -0.787234,1.252689 -0.903968,1.963791 -0.07955,0.484619 -0.103269,1.04787 0.155856,1.46505 0.266163,0.42851 0.783355,0.711617 1.278022,0.810453 0.599684,0.119819 1.807935,-0.311713 1.807935,-0.311713 l 9.47607,-5.766686 c 0,0 1.011993,-1.119537 1.278022,-1.807935 0.215092,-0.556589 0.48174,-1.241412 0.2182,-1.776765 -0.234534,-0.476432 -0.868992,-0.638863 -1.371537,-0.810453 -0.396382,-0.135342 -0.828487,-0.176051 -1.246851,-0.155855 -0.521195,0.02516 -1.527392,0.342884 -1.527392,0.342884 z"
           id="path28"
           sodipodi:nodetypes="ccssssccssssc" /><path
           style="fill:none;stroke:#000000;stroke-width:0.499999;stroke-linecap:round;stroke-dasharray:none;stroke-opacity:1"
           d="m 66.246216,64.300037 c -1.023693,-1.430304 -0.486499,-0.477991 -1.004719,-1.334044 -2.038833,0.138917 -2.177921,-1.103141 -2.181989,-1.402707 -0.0097,-0.710901 0.497026,-1.367363 0.966308,-1.901449 0.681016,-0.775057 1.580937,-1.40846 2.556047,-1.745591 0.590512,-0.204162 1.273739,-0.310508 1.870276,-0.124685 0.367184,0.114379 0.71478,0.382104 0.903968,0.716939 0.159764,0.28276 0.15888,0.643342 0.124685,0.966311 -0.03945,0.37255 -0.204136,0.750658 -0.374055,1.059823 0.512538,0.850824 0.876254,1.321782 0.876254,1.321782"
           id="path29"
           sodipodi:nodetypes="ccsssssscc" /><path
           style="fill:none;stroke:#000000;stroke-width:0.499999;stroke-linecap:square;stroke-dasharray:none;stroke-opacity:1"
           d="m 65.303841,63.558247 c 0,0 -0.406811,0.595423 -0.405228,0.935141 9.53e-4,0.204665 0.155856,0.436396 0.24937,0.561081 0.09351,0.124687 0.908237,0.226126 1.43388,0.155854 0.583044,-0.07794 1.336154,-0.318378 1.839106,-0.623426 0.892043,-0.541037 1.63263,-1.346301 2.21316,-2.213161 0.225484,-0.336698 0.541582,-0.723756 0.467569,-1.122166 -0.05772,-0.310697 -0.358092,-0.576453 -0.654595,-0.685769 -0.382204,-0.140913 -1.215681,0.124685 -1.215681,0.124685"
           id="path30"
           sodipodi:nodetypes="csssssssc" /><path
           style="fill:none;stroke:#000000;stroke-width:0.499999;stroke-linecap:square;stroke-dasharray:none;stroke-opacity:1"
           d="m 66.005199,57.962999 c 0,0 -3.548446,-0.817039 -5.40822,-1.324779 -1.975866,-0.539435 -3.953629,-1.08212 -5.891371,-1.745591 -0.622492,-0.213137 -1.357706,-0.268413 -1.839106,-0.716942 -0.159825,-0.148912 -0.135695,-0.428737 -0.280543,-0.592254 -0.154827,-0.174782 -0.372232,-0.295886 -0.592254,-0.374055 -0.246528,-0.08759 -0.524806,-0.154247 -0.779282,-0.09351 -0.437277,0.104366 -0.727017,0.533729 -1.122167,0.748112 -0.924589,0.501624 -1.93404,0.827944 -2.898928,1.246849 -0.926123,0.402075 -1.844566,0.821896 -2.774244,1.215681 -0.227418,0.09633 -0.560588,0.06764 -0.685768,0.280543 -0.132604,0.225529 -0.04411,0.556779 0.09351,0.77928 0.268323,0.433807 0.774108,0.762525 1.278022,0.841626 0.191761,0.0301 0.402756,-0.268156 0.561084,-0.155858 4.921718,3.490828 8.645275,5.121094 12.780227,7.948679 0.304568,0.208272 0.542754,0.569505 0.592254,0.935139 0.03351,0.247545 -0.115444,0.48925 -0.218199,0.71694 -0.366524,0.812161 -1.021151,1.470296 -1.402708,2.275503 -0.258906,0.546373 -0.413063,1.136973 -0.592254,1.714421 -0.18528,0.597068 -0.444155,1.185167 -0.498741,1.807934 -0.06744,0.769375 0.01464,1.561659 0.218199,2.306676 0.199687,0.730858 0.513709,1.449701 0.96631,2.057304 0.549486,0.737669 1.222646,1.452538 2.057305,1.839106 1.37071,0.634837 2.978563,0.661578 4.488665,0.623426 1.60732,-0.04061 3.17914,0.01869 4.738035,-0.374973 1.637666,-0.413555 3.186313,-1.092902 4.769206,-1.682332 1.378292,-0.513242 2.855688,-1.359237 4.11461,-2.119647 1.852947,-1.119211 3.531955,-2.539953 5.049748,-4.083439 1.18335,-1.203381 2.262667,-2.534473 3.117128,-3.989924 0.759127,-1.293064 1.50493,-2.665791 1.745592,-4.145781 0.197358,-1.21369 0.214346,-2.552564 -0.280541,-3.678211 -0.44675,-1.016157 -1.343239,-1.828832 -2.275504,-2.431361 -1.134208,-0.733046 -2.495457,-1.130574 -3.834068,-1.309194 -1.455134,-0.194168 -2.947551,0.03647 -4.395151,0.280542 -1.7649,0.297571 -3.406198,1.156824 -5.174434,1.433879 -0.760247,0.119119 -2.306674,0.09351 -2.306674,0.09351"
           id="path31"
           sodipodi:nodetypes="cssssssssssssssssssssssssssssssssssc" /><path
           style="fill:none;stroke:#000000;stroke-width:0.499999;stroke-linecap:round;stroke-dasharray:none;stroke-opacity:1"
           d="m 46.293139,57.49654 c 1.995236,-0.704906 3.884929,-1.756531 5.762906,-3.164991"
           id="path32"
           sodipodi:nodetypes="cc" /><path
           style="fill:none;stroke:#000000;stroke-width:0.499999;stroke-linecap:square;stroke-dasharray:none;stroke-opacity:1"
           d="m 87.466624,60.784004 c 0,0 0.525547,1.410193 0.592254,2.150819 0.0524,0.581823 -0.05319,1.170506 -0.155858,1.745591 -0.573236,3.210782 -1.313108,6.429468 -2.556045,9.4449 -0.328079,0.795937 -0.783156,1.539876 -1.278022,2.244333 -0.4321,0.615108 -0.974475,1.144856 -1.46505,1.714421 -0.817149,0.948722 -1.774427,1.790486 -2.46253,2.836584 -0.342223,0.520269 -0.548892,1.118113 -0.810456,1.683251 -0.171931,0.371477 -0.202138,0.840062 -0.49874,1.122166 -0.564863,0.537253 -1.413936,0.708185 -2.181989,0.841624 -0.849924,0.147663 -1.79792,0.285776 -2.587218,-0.06234 -0.316022,-0.13938 -0.42295,-0.566818 -0.716939,-0.748112 -1.202916,-0.741801 -2.684829,-0.889927 -4.052265,-1.246852 -2.005409,-0.523448 -4.096583,-0.70252 -6.078403,-1.309193 -1.252719,-0.383481 -3.654833,-1.535185 -3.654833,-1.535185"
           id="path33"
           sodipodi:nodetypes="csssssssssssssc" /><path
           style="fill:none;stroke:#000000;stroke-width:0.499999;stroke-linecap:square;stroke-dasharray:none;stroke-opacity:1"
           d="m 52.056045,62.217884 -0.966311,6.639483"
           id="path34" /><path
           style="fill:none;stroke:#000000;stroke-width:0.499999;stroke-linecap:butt;stroke-dasharray:none;stroke-opacity:1"
           d="m 53.895151,54.300376 c 0,0 1.062521,-2.311024 1.215678,-3.553526 0.127221,-1.03209 0.163596,-2.293993 -1.433878,-3.989925 -0.673201,-0.714692 -1.385034,-1.456697 -2.275503,-1.870276 -0.938963,-0.436102 -2.020183,-0.59892 -3.054787,-0.561083 -1.030061,0.03767 -2.078456,0.302762 -2.992443,0.779282 -0.908397,0.473605 -1.701503,1.192118 -2.337845,1.994961 -0.46474,0.58634 -0.79568,1.283977 -1.028652,1.994964 -0.268617,0.819768 -0.298395,1.700029 -0.405228,2.556044 -0.268763,2.153501 -0.432428,4.319314 -0.592254,6.483628 -0.203869,2.760727 -0.359411,5.525429 -0.467569,8.29156 -0.09299,2.378158 -0.155858,7.138225 -0.155858,7.138225"
           id="path35"
           sodipodi:nodetypes="cssssssssssc" /><path
           style="fill:none;stroke:#000000;stroke-width:0.499999;stroke-linecap:butt;stroke-dasharray:none;stroke-opacity:1"
           d="m 40.626111,96.113656 c 0,0 0.427874,7.282594 0.675842,11.458444 0.125287,2.10986 0.281404,4.21782 0.405225,6.32777 0.09144,1.5581 0.138389,3.11886 0.24937,4.67569 0.166155,2.3308 0.251778,4.6754 0.623427,6.98237 0.137492,0.85347 0.213522,1.74779 0.592254,2.52488 0.385321,0.79061 0.967601,1.505 1.652076,2.0573 0.813669,0.65654 1.787868,1.1625 2.805417,1.40271 0.849448,0.20053 1.787228,0.26636 2.618388,0 0.936297,-0.30005 1.714155,-1.01012 2.400189,-1.71442 0.673624,-0.69156 1.286639,-1.49449 1.620906,-2.40019 0.318626,-0.86332 0.366236,-1.82445 0.311714,-2.74307 -0.05629,-0.94847 -0.452299,-1.84589 -0.654598,-2.77425 -0.203047,-0.93179 -0.561083,-2.80541 -0.561083,-2.80541"
           id="path36"
           sodipodi:nodetypes="cssssssssssssc" /><path
           style="fill:none;stroke:#000000;stroke-width:0.499999;stroke-linecap:square;stroke-dasharray:none;stroke-opacity:1"
           d="m 43.577454,119.38602 0.529913,-0.12469 c 0,0 0.293002,-0.28084 0.342884,-0.46757 0.09713,-0.3636 -0.01957,-0.76078 -0.124685,-1.12216 -0.158336,-0.54436 -0.568451,-0.98969 -0.748112,-1.52739 -0.244755,-0.73252 -0.436396,-2.27551 -0.436396,-2.27551 0,0 -0.233006,2.70272 -0.155858,4.05227 0.0156,0.27288 0.03007,0.55402 0.124685,0.81045 0.08883,0.24076 0.405228,0.6546 0.405228,0.6546 h 1.371536 c 0.411608,-1.05255 0.402679,-1.39944 0.09352,-2.49371 -0.335974,-1.18917 -1.125624,-3.45812 -1.125624,-3.45812 l -0.09697,0.57367 -0.557757,0.0717"
           id="path37"
           sodipodi:nodetypes="ccssscssccsccc" /><path
           style="fill:none;stroke:#000000;stroke-width:0.499999;stroke-linecap:square;stroke-dasharray:none;stroke-opacity:1"
           d="m 43.889167,113.74402 c 0,0 -0.01477,-3.86983 0.124685,-5.79786 0.128398,-1.77516 0.363752,-3.54325 0.654598,-5.29912 0.374632,-2.2617 0.832188,-4.512602 1.402707,-6.732998 0.643712,-2.505255 1.302795,-5.021996 2.275504,-7.418766 0.891226,-2.195994 2.01675,-4.299007 3.241815,-6.327772 0.952178,-1.576851 2.044002,-3.069381 3.179469,-4.519835 0.517567,-0.661143 1.652079,-1.901449 1.652079,-1.901449"
           id="path38"
           sodipodi:nodetypes="cssssssc" /><path
           style="fill:none;stroke:#000000;stroke-width:0.499999;stroke-linecap:square;stroke-dasharray:none;stroke-opacity:1"
           d="m 74.094143,84.692378 c 0,0 -2.829301,1.534513 -4.114609,2.493703 -1.226167,0.915055 -2.381484,1.942202 -3.397671,3.085957 -0.915364,1.030276 -1.686894,2.187276 -2.400189,3.3665 -0.964415,1.594376 -1.752453,3.291675 -2.524873,4.987404 -1.12056,2.460018 -2.034091,5.009178 -3.054787,7.512278 -1.046938,2.56746 -2.115232,5.12624 -3.148301,7.69931 -0.707393,1.7619 -1.358205,3.32302 -2.022351,4.99054 -0.411263,1.03259 -0.585866,2.18897 -1.215222,3.1051 -0.388707,0.56582 -0.913821,1.06806 -1.520859,1.38861 -0.594105,0.31373 -1.293384,0.39391 -1.961687,0.46287 -0.840745,0.0867 -1.721168,0.16289 -2.534764,-0.0661 -0.750903,-0.21135 -1.534308,-0.56407 -2.027811,-1.1682 -0.426253,-0.52181 -0.58859,-1.24573 -0.639201,-1.9176 -0.02913,-0.38664 0.198372,-1.14616 0.198372,-1.14616"
           id="path39"
           sodipodi:nodetypes="csssssssssssssc" /><path
           style="fill:none;stroke:#000000;stroke-width:0.499999;stroke-linecap:butt;stroke-dasharray:none;stroke-opacity:1"
           d="m 55.578401,113.58816 c 0,0 -1.004378,1.02263 -1.65208,1.27802 -0.834875,0.3292 -1.789992,0.35881 -2.680729,0.24937 -0.841496,-0.10339 -1.746553,-0.30165 -2.400189,-0.84162 -0.621016,-0.51302 -1.040335,-1.30229 -1.215681,-2.08848 -0.256584,-1.15044 0.09044,-2.3646 0.311714,-3.52235 0.553583,-2.89642 1.419399,-5.74479 2.524874,-8.47859 1.013957,-2.507477 2.291977,-4.916456 3.740554,-7.20057 1.147501,-1.809378 2.392288,-3.586238 3.89641,-5.112091 1.122132,-1.138344 2.338576,-2.253397 3.771726,-2.961272 0.971591,-0.479898 2.072076,-0.683816 3.148298,-0.810453 1.166256,-0.137231 2.359495,-0.101183 3.522356,0.06234 0.596507,0.08388 1.181763,0.255544 1.745591,0.467569 0.72636,0.273144 2.088478,1.028652 2.088478,1.028652"
           id="path40"
           sodipodi:nodetypes="cssssssssssssc" /><path
           style="fill:none;stroke:#000000;stroke-width:0.499999;stroke-linecap:square;stroke-dasharray:none;stroke-opacity:1"
           d="m 50.310451,119.97827 c -0.08267,0.24294 -0.191728,0.51221 -0.405225,0.6546 -0.271434,0.18103 -0.667859,0.28767 -0.966311,0.15585 -0.295255,-0.13041 -0.437756,-0.50111 -0.52991,-0.81045 -0.100863,-0.33857 -0.111715,-0.72468 0,-1.05982 0.09857,-0.29572 0.116013,-0.51141 0.588635,-0.86934 0.598648,-0.45337 1.296812,-0.20481 1.46867,0.4018 0.139496,0.49238 0.009,1.04288 -0.155859,1.52736 z"
           id="path41"
           sodipodi:nodetypes="ssssssss" /><path
           style="fill:none;stroke:#000000;stroke-width:1.5;stroke-linecap:round;stroke-dasharray:none;stroke-opacity:1"
           d="m 49.302925,119.05194 c 0,0 1.593134,2.59723 2.628435,3.70058 1.546765,1.64843 3.615659,2.72782 5.267947,4.27046 1.66049,1.5503 4.613349,4.83155 4.64452,4.98741 0.03117,0.15585 1.714625,2.89669 2.213162,4.48866 0.439583,1.40371 0.830537,2.90361 0.654595,4.36398 -0.141015,1.17047 -0.577599,2.37406 -1.340363,3.27299 -0.781723,0.92128 -1.912002,1.61565 -3.085957,1.90144 -1.083242,0.26371 -2.280654,0.11205 -3.335327,-0.24936 -1.155899,-0.3961 -2.254279,-1.103 -3.054786,-2.02614 -1.062667,-1.22546 -1.638732,-2.83671 -2.088476,-4.39515 -0.544116,-1.88546 -0.570438,-3.8876 -0.6949,-5.84605 -0.152892,-2.40582 0.15785,-4.83115 -0.06234,-7.23174 -0.153221,-1.67048 -0.506891,-3.31912 -0.872797,-4.95623 -0.185852,-0.83153 -0.67064,-2.46659 -0.67064,-2.46659"
           id="path42"
           sodipodi:nodetypes="csssssssssssssc" /><path
           style="fill:none;stroke:#000000;stroke-width:0.5;stroke-linecap:round;stroke-dasharray:none;stroke-opacity:1"
           d="m 57.511018,77.865869 c 0,0 -3.838058,3.917253 -5.423802,6.140741 -1.040165,1.458491 -1.837265,3.079034 -2.649559,4.675692 -0.83287,1.637104 -1.601395,3.309964 -2.275504,5.018577 -0.583653,1.47934 -1.527394,4.519838 -1.527394,4.519838"
           id="path43"
           sodipodi:nodetypes="csssc" /><path
           style="fill:none;stroke:#000000;stroke-width:0.499999;stroke-linecap:round;stroke-dasharray:none;stroke-opacity:1"
           d="m 65.241497,62.965993 c 1.668624,-0.430242 2.923628,-1.274105 3.86524,-2.431359"
           id="path44"
           sodipodi:nodetypes="cc" /><path
           style="fill:none;stroke:#000000;stroke-width:0.499999;stroke-linecap:round;stroke-dasharray:none;stroke-opacity:1"
           d="m 79.338113,82.798617 c 0,0 1.00022,0.03174 1.498817,0 0.491565,-0.03129 1.022673,0.02781 1.465755,-0.187351 0.278074,-0.135033 0.525523,-0.372483 0.661244,-0.650222 0.154247,-0.315649 0.176332,-0.837575 0.121227,-1.046969 -0.0551,-0.209391 -0.282738,-1.300833 -0.209394,-1.950664 0.07844,-0.694957 0.683286,-1.98373 0.683286,-1.98373"
           id="path45"
           sodipodi:nodetypes="csssssc" /><path
           style="fill:none;stroke:#000000;stroke-width:0.499999;stroke-linecap:butt;stroke-dasharray:none;stroke-opacity:1"
           d="m 50.105624,74.5055 c -0.46287,1.094461 -0.279242,2.828508 -0.235836,3.997191 0.06418,1.728011 0.892648,4.833737 0.892648,4.833737"
           id="path46"
           sodipodi:nodetypes="csc" /><circle
           style="fill:none;stroke:#000000;stroke-width:0.499999;stroke-linecap:round;stroke-dasharray:none;stroke-opacity:1"
           id="path47"
           cx="42.18729"
           cy="87.019547"
           r="0.19837284" /><circle
           style="fill:none;stroke:#000000;stroke-width:0.499999;stroke-linecap:round;stroke-dasharray:none;stroke-opacity:1"
           id="path47-7"
           cx="43.840038"
           cy="85.644203"
           r="0.19837284" /><circle
           style="fill:none;stroke:#000000;stroke-width:0.499999;stroke-linecap:round;stroke-dasharray:none;stroke-opacity:1"
           id="path47-3"
           cx="45.692123"
           cy="86.437958"
           r="0.19837284" /><circle
           style="fill:none;stroke:#000000;stroke-width:0.499999;stroke-linecap:round;stroke-dasharray:none;stroke-opacity:1"
           id="path47-5"
           cx="47.015038"
           cy="85.115036"
           r="0.19837284" /><circle
           style="fill:none;stroke:#000000;stroke-width:0.499999;stroke-linecap:round;stroke-dasharray:none;stroke-opacity:1"
           id="path47-34"
           cx="49.131706"
           cy="85.644203"
           r="0.19837284" /><circle
           style="fill:none;stroke:#000000;stroke-width:0.499999;stroke-linecap:round;stroke-dasharray:none;stroke-opacity:1"
           id="path47-38"
           cx="47.544205"
           cy="86.967125"
           r="0.19837284" /><circle
           style="fill:none;stroke:#000000;stroke-width:0.499999;stroke-linecap:round;stroke-dasharray:none;stroke-opacity:1"
           id="path47-9"
           cx="44.104622"
           cy="87.760872"
           r="0.19837284" /><circle
           style="fill:none;stroke:#000000;stroke-width:0.499999;stroke-linecap:round;stroke-dasharray:none;stroke-opacity:1"
           id="path47-1"
           cx="45.956707"
           cy="88.290039"
           r="0.19837284" /><circle
           style="fill:none;stroke:#000000;stroke-width:0.499999;stroke-linecap:round;stroke-dasharray:none;stroke-opacity:1"
           id="path47-0"
           cx="44.633789"
           cy="89.877541"
           r="0.19837284" /><circle
           style="fill:none;stroke:#000000;stroke-width:0.499999;stroke-linecap:round;stroke-dasharray:none;stroke-opacity:1"
           id="path47-01"
           cx="42.51712"
           cy="89.083786"
           r="0.19837284" /><circle
           style="fill:none;stroke:#000000;stroke-width:0.499999;stroke-linecap:round;stroke-dasharray:none;stroke-opacity:1"
           id="path47-79"
           cx="43.046288"
           cy="90.935875"
           r="0.19837284" /><circle
           style="fill:none;stroke:#000000;stroke-width:0.499999;stroke-linecap:round;stroke-dasharray:none;stroke-opacity:1"
           id="path47-13"
           cx="43.310871"
           cy="93.317123"
           r="0.19837284" /><circle
           style="fill:none;stroke:#000000;stroke-width:0.499999;stroke-linecap:round;stroke-dasharray:none;stroke-opacity:1"
           id="path47-53"
           cx="43.840038"
           cy="95.698372"
           r="0.19837284" /><circle
           style="fill:none;stroke:#000000;stroke-width:0.499999;stroke-linecap:round;stroke-dasharray:none;stroke-opacity:1"
           id="path47-59"
           cx="44.104622"
           cy="97.550453"
           r="0.19837284" /><circle
           style="fill:none;stroke:#000000;stroke-width:0.499999;stroke-linecap:round;stroke-dasharray:none;stroke-opacity:1"
           id="path47-6"
           cx="44.633789"
           cy="99.755371"
           r="0.19837284" /><circle
           style="fill:none;stroke:#000000;stroke-width:0.499999;stroke-linecap:round;stroke-dasharray:none;stroke-opacity:1"
           id="path47-2"
           cx="45.692123"
           cy="95.962952"
           r="0.19837284" /><circle
           style="fill:none;stroke:#000000;stroke-width:0.499999;stroke-linecap:round;stroke-dasharray:none;stroke-opacity:1"
           id="path47-22"
           cx="45.162956"
           cy="93.846291"
           r="0.19837284" /><circle
           style="fill:none;stroke:#000000;stroke-width:0.499999;stroke-linecap:round;stroke-dasharray:none;stroke-opacity:1"
           id="path47-39"
           cx="44.633789"
           cy="91.994202"
           r="0.19837284" /><circle
           style="fill:none;stroke:#000000;stroke-width:0.499999;stroke-linecap:round;stroke-dasharray:none;stroke-opacity:1"
           id="path47-4"
           cx="46.48587"
           cy="90.406708"
           r="0.19837284" /><circle
           style="fill:none;stroke:#000000;stroke-width:0.499999;stroke-linecap:round;stroke-dasharray:none;stroke-opacity:1"
           id="path47-015"
           cx="46.662289"
           cy="92.523369"
           r="0.19837284" /><circle
           style="fill:none;stroke:#000000;stroke-width:0.499999;stroke-linecap:round;stroke-dasharray:none;stroke-opacity:1"
           id="path47-135"
           cx="47.742577"
           cy="88.885414"
           r="0.19837284" /><path
           style="fill:none;stroke:#000000;stroke-width:0.499999;stroke-linecap:butt;stroke-dasharray:none;stroke-opacity:1"
           d="m 50.122203,74.544104 c -0.04019,1.838246 -0.05987,3.654405 0.08817,5.289942"
           id="path48"
           sodipodi:nodetypes="cc" /><path
           style="fill:none;stroke:#000000;stroke-width:0.499999;stroke-linecap:butt;stroke-linejoin:miter;stroke-dasharray:none;stroke-opacity:1"
           d="m 72.544069,69.766023 1.906812,-1.159212 c 0,0 0.428365,0.615078 0.02747,0.945621 -0.31445,0.259267 -0.929431,-0.274165 -0.929431,-0.274165 0,0 0.517663,0.629621 -0.162818,1.08691 -0.381114,0.256112 -0.842031,-0.599154 -0.842031,-0.599154 z"
           id="path49"
           sodipodi:nodetypes="ccscsc" /><path
           style="fill:none;stroke:#000000;stroke-width:0.4;stroke-linecap:butt;stroke-linejoin:miter;stroke-dasharray:none;stroke-opacity:1"
           d="m 66.121734,73.739915 1.959784,-0.454322 -1.417088,1.622785"
           id="path50"
           sodipodi:nodetypes="ccc" /><path
           style="fill:none;stroke:#000000;stroke-width:0.4;stroke-linecap:butt;stroke-linejoin:miter;stroke-dasharray:none;stroke-opacity:1"
           d="m 66.715368,73.644131 0.367011,0.671811"
           id="path51"
           sodipodi:nodetypes="cc" /></g></g></g></svg>
