<?xml version="1.0" encoding="UTF-8" standalone="no"?>
<!-- Created with Inkscape (http://www.inkscape.org/) -->

<svg
   width="210mm"
   height="297mm"
   viewBox="0 0 210 297"
   version="1.1"
   id="svg1"
   inkscape:version="1.3 (0e150ed6c4, 2023-07-21)"
   sodipodi:docname="Controller_Vive.svg"
   xmlns:inkscape="http://www.inkscape.org/namespaces/inkscape"
   xmlns:sodipodi="http://sodipodi.sourceforge.net/DTD/sodipodi-0.dtd"
   xmlns="http://www.w3.org/2000/svg"
   xmlns:svg="http://www.w3.org/2000/svg">
  <sodipodi:namedview
     id="namedview1"
     pagecolor="#ffffff"
     bordercolor="#000000"
     borderopacity="0.25"
     inkscape:showpageshadow="2"
     inkscape:pageopacity="0.0"
     inkscape:pagecheckerboard="0"
     inkscape:deskcolor="#d1d1d1"
     inkscape:document-units="mm"
     inkscape:zoom="0.75024446"
     inkscape:cx="463.18236"
     inkscape:cy="552.48659"
     inkscape:window-width="2560"
     inkscape:window-height="1369"
     inkscape:window-x="1912"
     inkscape:window-y="-8"
     inkscape:window-maximized="1"
     inkscape:current-layer="layer1" />
  <defs
     id="defs1" />
  <g
     inkscape:label="Ebene 1"
     inkscape:groupmode="layer"
     id="layer1">
    <g
       id="g2"
       inkscape:export-filename="Controller_Vive.png"
       inkscape:export-xdpi="96"
       inkscape:export-ydpi="96">
      <rect
         style="fill:#ffffff;stroke-width:1.5;stroke-linecap:square"
         id="rect1"
         width="135.06987"
         height="154.81898"
         x="16.22249"
         y="17.280478" />
      <g
         id="g1"
         inkscape:export-filename="..\..\..\..\Controller_Vive.png"
         inkscape:export-xdpi="96"
         inkscape:export-ydpi="96">
        <path
           style="fill:none;stroke:#000000;stroke-width:0.5;stroke-dasharray:none;stroke-opacity:1"
           d="m 30.056919,66.743534 c 0.04079,-0.67069 0.213059,-1.27625 -0.314386,-1.99112 -2.76774,-3.75126 -3.941736,-7.71517 -3.039078,-12.57549 0,0 1.732361,-4.03417 2.811504,-5.86856 2.575664,-4.37826 4.917762,-7.6764 9.475028,-11.6069 10.427173,-8.99311 28.112451,-11.63362 40.530526,-5.68439 5.95208,2.85151 9.13743,5.70216 16.97691,11.8419 0.28047,0.21966 0.224,0.69201 0.20959,1.04796 -0.0206,0.5082 -0.57643,0.98344 -0.41918,1.46715 1.28875,3.96431 1.64894,4.77725 2.4103,7.75488 2.236947,8.74856 8.433197,15.97437 12.365897,24.10304 4.47975,9.25939 8.61188,18.68372 12.78509,28.085246 5.96055,13.4281 11.58854,26.92608 17.50089,40.45117 1.06484,2.43593 1.03031,5.42807 0.23393,7.96449 -1.07379,3.41995 -3.34868,6.40137 -6.45393,8.19203 -1.55778,0.89831 -3.58073,1.08349 -5.34459,0.73358 -1.90405,-0.37772 -3.61236,-0.73142 -4.99314,-2.63787 -7.50317,-10.35968 -12.91623,-19.25228 -20.85436,-30.91476 -0.20237,-0.29731 -0.76972,-0.20892 -0.94316,-0.52398 -4.290657,-7.79418 -4.250497,-7.4353 -10.060387,-16.34813 -0.12064,-0.18507 0.1146,0.18888 0,0 -6.0142,-9.91217 -9.98724,-17.656536 -15.300185,-27.351696 -0.855,-1.56022 -2.27264,-2.7735 -3.66785,-3.87744 -1.58341,-1.25285 -3.3561,-2.31206 -5.23979,-3.03908 -2.33301,-0.90044 -4.83619,-1.49341 -7.3357,-1.57195 -2.09478,-0.0658 -3.10748,-0.11316 -5.62192,-0.0921 -0.824389,0.007 -1.495829,0.61531 -2.028166,1.24483 -2.249485,2.66013 -2.58064,6.27775 -4.715809,9.32682 -0.601453,0.85889 -1.718742,1.27613 -2.724689,1.57195 -1.375662,0.40454 -2.934155,0.65653 -4.296627,0.20957 -4.796196,-1.5734 -7.863428,-2.85792 -12.408216,-5.93629 -0.854546,-0.57882 -1.789852,-1.7506 -1.55396,-2.7554 1.359102,-5.78918 1.75664,-6.96381 2.015458,-11.2195 z"
           id="path1"
           sodipodi:nodetypes="ssssssssssssssssssssssssssssssssss" />
        <path
           style="fill:none;stroke:#000000;stroke-width:0.499999;stroke-dasharray:none;stroke-opacity:1"
           d="m 42.003637,86.654674 c 0,0 2.205335,-0.50677 3.012876,-1.23129 2.498431,-2.24158 2.453889,-6.44924 4.794409,-8.85524 1.132202,-1.16388 2.631079,-2.09289 4.218027,-2.43652 1.858649,-0.40247 9.481479,-0.89647 13.722459,-0.0898 2.17785,0.41422 4.31282,1.30798 6.13193,2.57504 2.96843,2.06758 5.398445,4.92233 7.410175,7.92889 15.9902,23.897616 32.907097,52.989586 46.017207,73.453396 0.9217,1.4387 4.27738,2.82464 4.27738,2.82464"
           id="path2"
           sodipodi:nodetypes="csssssssc" />
        <path
           style="fill:none;stroke:#000000;stroke-width:0.499999;stroke-dasharray:none;stroke-opacity:1"
           d="m 92.934373,110.23378 c 0,0 1.52194,-0.99892 3.80936,2.56323 2.83017,4.40737 4.657557,7.86088 7.937107,13.33986 0.36405,0.60821 -0.74292,0.96902 -0.74292,0.96902"
           id="path3"
           sodipodi:nodetypes="cssc" />
        <path
           style="fill:none;stroke:#000000;stroke-width:0.499999;stroke-dasharray:none;stroke-opacity:1"
           d="m 79.702026,86.677129 c 0.99805,3.29355 -0.270728,6.931796 -0.473798,8.351276 -0.0584,0.4085 0.29872,0.73699 0.62986,0.77806 0.3677,0.0456 0.38227,-0.0712 0.47004,-0.43112 0.31141,-0.30077 3.260874,-0.123442 3.769344,-0.587082"
           id="path4"
           sodipodi:nodetypes="csssc" />
        <path
           style="fill:none;stroke:#000000;stroke-width:0.499999;stroke-dasharray:none;stroke-opacity:1"
           d="m 49.763202,54.701214 c 8.347586,-7.82545 20.906626,-6.15207 24.638846,-4.40907 0,0 -9.02838,6.76454 -24.638846,4.40907 z"
           id="path5"
           sodipodi:nodetypes="csc" />
        <path
           style="fill:none;stroke:#000000;stroke-width:0.499999;stroke-dasharray:none;stroke-opacity:1"
           d="m 49.763202,54.701214 c 0,0 -4.665147,-0.0942 -0.547166,-6.89148 2.267091,-3.74213 14.317412,-7.81318 20.814002,-4.85368 8.958335,4.08095 4.37201,7.33609 4.37201,7.33609"
           id="path6"
           sodipodi:nodetypes="cssc" />
        <path
           style="fill:none;stroke:#000000;stroke-width:0.499999;stroke-dasharray:none;stroke-opacity:1"
           d="m 36.061235,37.442174 c 0,0 -2.897415,4.11736 -2.859786,6.47721 0.04958,3.10958 1.765664,6.28784 4.03855,8.41055 2.924797,2.73155 7.20234,3.80311 11.15232,4.44611 6.031448,0.98183 12.370259,0.42658 18.303139,-1.03743 4.86153,-1.19964 9.69465,-3.18216 13.671785,-6.22453 2.30595,-1.76397 4.29501,-4.09188 5.55764,-6.70621 0.80692,-1.67078 1.38631,-3.60636 1.14857,-5.4465 -0.2767,-2.1417 -1.41493,-4.22718 -2.90399,-5.7912 -0.96829,-1.01704 -3.66864,-2.07092 -3.66864,-2.07092"
           id="path7"
           sodipodi:nodetypes="cssssssssc" />
        <path
           style="fill:none;stroke:#000000;stroke-width:0.499999;stroke-dasharray:none;stroke-opacity:1"
           d="m 49.763202,54.701214 c 0,0 -4.316059,-0.84726 -6.261603,-1.8155 -2.069821,-1.03009 -4.201433,-2.27727 -5.557634,-4.14969 -0.909517,-1.25571 -1.393568,-2.8611 -1.482037,-4.40907 -0.09799,-1.7146 0.256974,-3.52856 1.074476,-5.03891 1.276209,-2.35781 3.494708,-4.13698 5.668788,-5.70585 2.114013,-1.52553 4.558816,-2.57499 7.002621,-3.48279 2.903418,-1.07853 5.935045,-1.87474 9.003365,-2.29716 3.08407,-0.42458 6.23461,-0.48304 9.33683,-0.22231 2.45707,0.20651 4.95818,0.52909 7.26197,1.40796 1.961145,0.74816 4.037175,1.63511 5.409435,3.22342 1.20555,1.39535 1.75306,3.30427 2.1119,5.11302 0.24274,1.22353 0.34473,2.54334 0,3.74213 -0.50761,1.76517 -1.68759,3.31294 -2.92702,4.66841 -1.69519,1.8539 -6.002245,4.55727 -6.002245,4.55727"
           id="path8"
           sodipodi:nodetypes="csssssssssssssc" />
        <path
           style="fill:none;stroke:#000000;stroke-width:0.499999;stroke-dasharray:none;stroke-opacity:1"
           d="M 99.628383,54.120374 73.883338,76.616804"
           id="path9" />
        <path
           style="fill:none;stroke:#000000;stroke-width:0.499999;stroke-dasharray:none;stroke-opacity:1"
           d="m 91.334303,63.482254 c -1.72117,0.87357 -1.78583,4.11995 -0.74101,5.74289 0.81836,1.2712 3.01245,2.0664 4.33494,1.33384 1.34174,-0.74321 1.78792,-3.03548 1.18564,-4.44611 -0.71408,-1.67249 -3.15792,-3.45368 -4.77957,-2.63062 z"
           id="path10"
           sodipodi:nodetypes="sssss" />
        <path
           style="fill:none;stroke:#000000;stroke-width:0.499999;stroke-dasharray:none;stroke-opacity:1"
           d="m 113.85773,81.115174 c 0,0 2.29197,5.34725 3.03155,8.01109 1.74199,6.27425 1.40746,13.507166 -3.17624,16.927466 -5.50279,4.1061 -13.790567,2.40287 -16.858157,-2.37124 -1.43413,-2.23195 -0.97247,-1.43029 -6.3357,-10.359706 -1.99034,-3.31379 -0.67594,-15.66459 4.18675,-20.80009 2.50856,-2.64929 7.049317,-3.59538 10.596557,-2.74177 2.36659,0.5695 5.4635,4.8452 5.4635,4.8452"
           id="path11"
           sodipodi:nodetypes="cssssssc" />
        <path
           style="fill:none;stroke:#000000;stroke-width:0.499999;stroke-dasharray:none;stroke-opacity:1"
           d="m 112.02128,77.223814 c -1.11554,-2.23642 -2.57058,-4.64267 -4.8107,-5.75075 -2.15524,-1.0661 -5.04388,-1.37261 -7.20636,-0.32125 -4.179537,2.03203 -7.017387,6.82149 -8.114147,11.33755 -0.99055,4.07869 -0.27987,8.82337 1.81549,12.46018 1.75423,3.04472 4.76744,6.181906 8.262347,6.546926 3.12855,0.32675 6.32677,-1.882806 8.44761,-4.205866 2.43459,-2.66674 3.67079,-6.49397 3.92739,-10.09576 0.2425,-3.40395 -0.79838,-6.91727 -2.32163,-9.97103 z"
           id="path12"
           sodipodi:nodetypes="sssssssss" />
        <path
           style="fill:none;stroke:#000000;stroke-width:0.499999;stroke-dasharray:none;stroke-opacity:1"
           d="m 93.687043,98.502634 c 0,0 2.81757,3.119236 4.72398,3.771926 1.659357,0.56811 3.566527,0.3778 5.261237,-0.0741 1.59719,-0.4259 4.33494,-2.408316 4.33494,-2.408316"
           id="path13"
           sodipodi:nodetypes="cssc" />
        <path
           style="fill:none;stroke:#000000;stroke-width:0.499999;stroke-dasharray:none;stroke-opacity:1"
           d="m 114.32438,112.40797 c -1.03842,-1.80035 -0.46409,-5.1712 1.40793,-6.07404 1.05954,-0.511 2.64939,0.47017 3.18638,1.51678 0.87364,1.70275 0.6148,4.65344 -1.0189,5.65025 -1.06385,0.64912 -2.95274,-0.0134 -3.57541,-1.09299 z"
           id="path14"
           sodipodi:nodetypes="sssss" />
        <path
           style="fill:none;stroke:#000000;stroke-width:0.499999;stroke-dasharray:none;stroke-opacity:1"
           d="m 73.883338,76.616804 -1.33944,1.35075"
           id="path15" />
        <path
           style="fill:none;stroke:#000000;stroke-width:0.499999;stroke-dasharray:none;stroke-opacity:1"
           d="m 36.135073,72.481104 c -1.682896,-0.27207 -3.224585,2.01816 -3.536855,3.69406 -0.282529,1.51628 0.282677,3.90658 1.781527,4.27043 1.674448,0.40647 3.589761,-1.64357 3.956039,-3.32727 0.363706,-1.67187 -0.511665,-4.36416 -2.200711,-4.63722 z"
           id="path16"
           sodipodi:nodetypes="sssss" />
        <path
           style="fill:none;stroke:#000000;stroke-width:0.499999;stroke-dasharray:none;stroke-opacity:1"
           d="m 35.663492,74.419834 c -0.976764,-0.13114 -1.986382,1.05916 -2.148313,2.03129 -0.14822,0.88983 0.376109,2.20444 1.257549,2.39633 1.003611,0.21849 2.249825,-0.87631 2.436503,-1.88632 0.180203,-0.97498 -0.563064,-2.40936 -1.545739,-2.5413 z"
           id="path17"
           sodipodi:nodetypes="sssss" />
        <path
           style="fill:none;stroke:#000000;stroke-width:0.499999;stroke-dasharray:none;stroke-opacity:1"
           d="m 45.97291,56.335834 c -2.323164,-0.46567 -3.329472,0.94075 -3.812079,2.44324 -0.621683,1.93547 0.224043,4.65308 2.4365,5.16117 2.128071,0.48871 3.919301,-1.99249 3.95604,-3.90363 0.04588,-2.38684 -0.595052,-3.30281 -2.580461,-3.70078 z"
           id="path18"
           sodipodi:nodetypes="sssss" />
        <path
           style="fill:none;stroke:#000000;stroke-width:0.499999;stroke-dasharray:none;stroke-opacity:1"
           d="m 46.028486,56.335834 c -1.291826,-0.18461 -2.482631,1.63999 -2.583907,2.941 -0.08348,1.07244 0.662052,2.58887 1.729128,2.72471 1.103242,0.14044 2.225508,-1.18736 2.436503,-2.27931 0.236363,-1.22324 -0.348391,-3.21015 -1.581724,-3.3864 z"
           id="path19"
           sodipodi:nodetypes="sssss" />
        <path
           style="fill:none;stroke:#000000;stroke-width:0.499999;stroke-dasharray:none;stroke-opacity:1"
           d="m 58.447308,69.760904 c -0.0139,-1.27647 0.81633,-2.35904 2.02658,-2.3362 1.15792,0.0219 2.3534,0.81608 2.3841,2.04354 0.031,1.23945 -0.8861,2.40808 -1.96492,2.4103 -1.20098,0.002 -2.4316,-0.81829 -2.44576,-2.11764 z"
           id="path20"
           sodipodi:nodetypes="sssss" />
        <path
           style="fill:none;stroke:#000000;stroke-width:0.499999;stroke-dasharray:none;stroke-opacity:1"
           d="m 60.655218,72.900284 c -1.63207,0.046 -3.65729,-1.32539 -3.66579,-3.24866 -0.008,-1.90751 1.53013,-3.95153 3.43662,-3.919 2.36014,0.0403 3.80045,1.54494 3.82049,3.60462 0.0245,2.51941 -1.90568,3.51558 -3.59132,3.56304 z"
           id="path21"
           sodipodi:nodetypes="sssss" />
        <path
           style="fill:none;stroke:#000000;stroke-width:0.499999;stroke-dasharray:none;stroke-opacity:1"
           d="m 60.646898,44.493664 c -0.68371,0.10661 -1.38288,0.62334 -1.38015,1.31531 0.004,0.93017 0.941,1.24397 2.11191,1.12079 1.06885,-0.11244 1.63788,-0.57189 1.51908,-1.62097 -0.0732,-0.64669 -1.4856,-0.93446 -2.25084,-0.81513 z"
           id="path22"
           sodipodi:nodetypes="sssss" />
        <path
           style="fill:none;stroke:#000000;stroke-width:0.499999;stroke-dasharray:none;stroke-opacity:1"
           d="m 62.897738,45.308794 c 3.12689,-0.17723 4.25405,1.92706 4.80256,3.57687"
           id="path23"
           sodipodi:nodetypes="cc" />
        <path
           style="fill:none;stroke:#000000;stroke-width:0.499999;stroke-dasharray:none;stroke-opacity:1"
           d="m 57.000128,50.321454 c -0.27823,-3.67115 1.21534,-3.82953 2.26662,-4.531"
           id="path24"
           sodipodi:nodetypes="cc" />
        <path
           style="fill:none;stroke:#000000;stroke-width:0.499999;stroke-dasharray:none;stroke-opacity:1"
           d="m 74.180688,28.461344 c -1.85246,-0.60418 -4.25179,0.9797 -4.58957,2.96603 -0.26532,1.5602 1.168,3.44577 2.76453,3.69403 1.65458,0.25729 3.46783,-0.84649 4.09959,-2.3972 0.58973,-1.44754 -0.66967,-3.73942 -2.27455,-4.26286 z"
           id="path25"
           sodipodi:nodetypes="sssss" />
        <path
           style="fill:none;stroke:#000000;stroke-width:0.499999;stroke-dasharray:none;stroke-opacity:1"
           d="m 73.070538,29.934044 c -1.52737,-0.11891 -2.18017,0.7912 -2.22543,1.86156 -0.0458,1.08386 0.72035,2.00034 1.64285,2.12197 1.0027,0.13221 1.99096,-0.7987 2.15955,-1.79593 0.14243,-0.8425 -0.59375,-2.11105 -1.57697,-2.1876 z"
           id="path26"
           sodipodi:nodetypes="sssss" />
        <path
           style="fill:none;stroke:#000000;stroke-width:0.499999;stroke-dasharray:none;stroke-opacity:1"
           d="m 118.93721,114.14935 c 0.17906,-0.10646 0.49575,-0.0436 0.61135,0.1297 0.11154,0.16726 0.0469,0.46851 -0.11116,0.5928 -0.18469,0.14527 -0.56845,0.15497 -0.70397,-0.037 -0.13747,-0.19475 -0.001,-0.56368 0.20378,-0.6855 z"
           id="path27"
           sodipodi:nodetypes="sssss" />
        <path
           style="fill:none;stroke:#000000;stroke-width:0.499999;stroke-dasharray:none;stroke-opacity:1"
           d="m 131.10622,126.66052 0.47158,3.45826 -1.93872,-1.59814"
           id="path28" />
        <path
           style="fill:none;stroke:#000000;stroke-width:0.499999;stroke-dasharray:none;stroke-opacity:1"
           d="m 128.61732,129.93537 1.28375,2.38411"
           id="path29" />
        <path
           style="fill:none;stroke:#000000;stroke-width:0.499999;stroke-dasharray:none;stroke-opacity:1"
           d="m 127.54316,131.32393 0.262,3.32727 -2.25311,-1.49334"
           id="path30" />
        <path
           style="fill:none;stroke:#000000;stroke-width:0.499999;stroke-dasharray:none;stroke-opacity:1"
           d="m 122.82736,136.03973 1.62433,-1.28376 1.23135,2.17453 -1.49334,1.33615"
           id="path31" />
        <path
           style="fill:none;stroke:#000000;stroke-width:0.499999;stroke-dasharray:none;stroke-opacity:1"
           d="m 123.84912,136.79951 1.12655,-0.86458"
           id="path32" />
        <path
           style="fill:none;stroke:#000000;stroke-width:0.25;stroke-dasharray:none;stroke-opacity:1"
           d="m 92.251323,66.853894 1.54687,-0.89847"
           id="path33" />
        <path
           style="fill:none;stroke:#000000;stroke-width:0.25;stroke-dasharray:none;stroke-opacity:1"
           d="m 92.576403,67.486084 1.54688,-0.89847"
           id="path33-8" />
        <path
           style="fill:none;stroke:#000000;stroke-width:0.25;stroke-dasharray:none;stroke-opacity:1"
           d="m 92.977083,68.056334 1.54687,-0.89847"
           id="path33-3" />
        <path
           style="fill:none;stroke:#000000;stroke-width:0.25;stroke-dasharray:none;stroke-opacity:1"
           d="m 117.01057,108.70288 -0.3983,1.67655 -1.10226,-0.12041 0.38903,-1.44499 z"
           id="path34" />
        <path
           style="fill:none;stroke:#000000;stroke-width:0.25;stroke-dasharray:none;stroke-opacity:1"
           d="m 116.83458,109.49022 0.68544,0.037 -0.42609,1.63949 -1.25972,-0.21304 0.19452,-0.54649"
           id="path35" />
        <path
           style="fill:none;stroke:#000000;stroke-width:1;stroke-linejoin:bevel;stroke-dasharray:none;stroke-opacity:1"
           d="m 123.97614,124.05122 0.0185,5.28902 3.2049,-3.30681 z"
           id="path36" />
      </g>
    </g>
  </g>
</svg>
