<?xml version="1.0" encoding="UTF-8" standalone="no"?>
<!-- Created with Inkscape (http://www.inkscape.org/) -->

<svg
   width="500mm"
   height="500mm"
   viewBox="0 0 500 500"
   version="1.1"
   id="svg5"
   xml:space="preserve"
   inkscape:version="1.3 (0e150ed6c4, 2023-07-21)"
   sodipodi:docname="de_Controls.svg"
   xmlns:inkscape="http://www.inkscape.org/namespaces/inkscape"
   xmlns:sodipodi="http://sodipodi.sourceforge.net/DTD/sodipodi-0.dtd"
   xmlns="http://www.w3.org/2000/svg"
   xmlns:svg="http://www.w3.org/2000/svg"><sodipodi:namedview
     id="namedview7"
     pagecolor="#ffffff"
     bordercolor="#000000"
     borderopacity="0.25"
     inkscape:showpageshadow="2"
     inkscape:pageopacity="0.0"
     inkscape:pagecheckerboard="0"
     inkscape:deskcolor="#d1d1d1"
     inkscape:document-units="mm"
     showgrid="false"
     showguides="true"
     inkscape:zoom="1.2623761"
     inkscape:cx="901.47459"
     inkscape:cy="250.71767"
     inkscape:window-width="2560"
     inkscape:window-height="1369"
     inkscape:window-x="1912"
     inkscape:window-y="-8"
     inkscape:window-maximized="1"
     inkscape:current-layer="layer1"><sodipodi:guide
       position="212.31621,410.71401"
       orientation="1,0"
       id="guide4707"
       inkscape:locked="false" /><sodipodi:guide
       position="219.86151,432.72112"
       orientation="1,0"
       id="guide4709"
       inkscape:locked="false" /><sodipodi:guide
       position="230.55068,440.476"
       orientation="1,0"
       id="guide4711"
       inkscape:locked="false" /></sodipodi:namedview><defs
     id="defs2" /><g
     inkscape:label="Ebene 1"
     inkscape:groupmode="layer"
     id="layer1"><g
       id="g490"
       inkscape:export-filename="de_Controls.png"
       inkscape:export-xdpi="330"
       inkscape:export-ydpi="330"><g
         id="g1001"
         inkscape:export-filename="de_Controls.png"
         inkscape:export-xdpi="330"
         inkscape:export-ydpi="330"><g
           id="g443"
           inkscape:export-filename="de_Controls.png"
           inkscape:export-xdpi="330"
           inkscape:export-ydpi="330"><rect
             style="fill:#ffffff;fill-opacity:1;stroke:none;stroke-width:0.750001;paint-order:fill markers stroke"
             id="rect415"
             width="329.37259"
             height="158.12099"
             x="65.864388"
             y="43.086857"
             inkscape:export-filename="de_Controls.png"
             inkscape:export-xdpi="330"
             inkscape:export-ydpi="330" /><g
             id="g2"><path
               style="fill:none;fill-opacity:1;stroke:#000000;stroke-width:0.750001;stroke-linecap:round;stroke-dasharray:none;stroke-opacity:1;paint-order:fill markers stroke"
               d="m 137.75567,127.9758 -2.22877,1.43534"
               id="path4668"
               sodipodi:nodetypes="cc" /><path
               style="fill:none;fill-opacity:1;stroke:#000000;stroke-width:0.750001;stroke-linecap:round;stroke-dasharray:none;stroke-opacity:1;paint-order:fill markers stroke"
               d="m 136.03522,126.88563 -2.22877,1.43534"
               id="path4668-3"
               sodipodi:nodetypes="cc" /><path
               style="fill:none;stroke:#000000;stroke-width:0.5;stroke-dasharray:none;stroke-opacity:1;paint-order:fill markers stroke"
               d="m 127.95563,162.64303 c 0,0 7.78189,13.22301 12.57549,19.17762 3.03604,3.77137 6.21931,7.56928 10.16519,10.37478 2.20322,1.56647 4.69768,2.86761 7.3357,3.45826 1.29534,0.29002 2.68931,0.30058 3.98224,0 2.23684,-0.52002 4.46437,-1.51581 6.18295,-3.03908 1.34138,-1.18894 2.20428,-2.86914 2.93428,-4.50621 0.82477,-1.84959 1.29069,-3.86305 1.57194,-5.86857 0.28627,-2.0413 0.32438,-4.1334 0.1048,-6.18295 -0.30959,-2.88975 -1.08129,-5.72825 -1.99112,-8.48845 -0.94053,-2.85333 -2.2592,-5.5722 -3.56306,-8.27887 -2.44168,-5.06865 -5.19076,-9.98616 -7.96448,-14.881 -3.95475,-6.97903 -8.25067,-13.75914 -12.3659,-20.64476 -2.2743,-3.80536 -6.81172,-11.42274 -6.81172,-11.42274 0,0 4.62344,-4.0348 6.81172,-6.18295 2.36305,-2.31971 4.62019,-4.74852 6.81173,-7.230908 1.55996,-1.766993 3.12754,-3.537574 4.50621,-5.44938 1.34929,-1.871064 2.62818,-3.809307 3.66786,-5.868564 0.72796,-1.441852 1.45895,-2.923556 1.78152,-4.506216 0.54433,-2.670678 0.67279,-5.48813 0.2096,-8.17407 -0.4961,-2.876811 -1.59155,-5.701735 -3.14388,-8.174071 -1.68204,-2.678933 -3.98021,-5.000779 -6.49733,-6.916521 -1.79048,-1.362706 -3.82904,-2.462199 -5.97336,-3.143872 -3.05564,-0.971381 -6.33269,-1.386642 -9.53642,-1.257548 -4.31973,0.174063 -8.55875,1.419565 -12.68028,2.72469 -4.08858,1.29469 -8.02675,3.07135 -11.84193,5.030197 -5.6759,2.914203 -11.21482,6.166481 -16.348137,9.955596 -4.917681,3.629942 -9.668021,7.587432 -13.728245,12.15631 -3.05108,3.43331 -6.106589,7.072546 -7.859681,11.317941 -0.988603,2.394062 -1.455897,5.061626 -1.362345,7.650086 0.08721,2.41303 0.837365,4.79896 1.781527,7.02132 0.803571,1.89143 1.972191,3.62924 3.248668,5.23979 1.227403,1.54863 2.630644,2.98044 4.191831,4.19183 1.5714,1.21931 3.481112,1.93423 5.134994,3.03908 1.742807,1.16425 3.407174,2.4465 5.030197,3.77265 0.977187,0.79844 2.072036,1.50579 2.829483,2.51509 0.92851,1.23724 1.547236,2.70999 1.991122,4.19183 0.4352,1.45284 0.476565,2.99725 0.628774,4.50622 0.0562,0.55717 -0.08878,1.15125 0.104797,1.67673 0.120752,0.32779 0.399895,0.57447 0.628775,0.83837 0.35604,0.41052 0.69527,0.85948 1.15275,1.15275 0.84673,0.54279 1.86016,0.77966 2.82949,1.04796 0.54804,0.15169 1.16117,0.0745 1.67673,0.31439 0.90025,0.41893 1.47206,1.34658 2.30551,1.88632 0.59006,0.38213 1.22138,0.71501 1.88632,0.94316 0.84239,0.28903 1.72941,0.50962 2.61989,0.52398 0.84982,0.0137 1.72833,-0.0977 2.5151,-0.41918 0.39471,-0.1613 1.41847,-1.02998 1.41847,-1.02998 l 2.43463,2.69399 -0.91882,1.16548 5.0302,12.05151 1.04796,0.73357 2.61989,-0.52398 z"
               id="path356"
               sodipodi:nodetypes="csssssssssssscsssssssssssssssssssssssssssssssssccccccc" /><path
               style="fill:none;stroke:#000000;stroke-width:0.499999;stroke-dasharray:none;stroke-opacity:1;paint-order:fill markers stroke"
               d="m 119.15278,148.60039 c 0,0 2.03011,-1.58053 3.24867,-1.78152 0.59498,-0.0981 1.43823,-0.0372 2.01732,0.13099 0.61674,0.17911 1.01653,0.55313 1.54574,0.91696 0.7127,0.48998 1.34139,1.14183 1.78153,1.88633 0.52284,0.88439 0.73241,1.92875 0.94316,2.93428 0.28093,1.34037 0.52383,2.72154 0.41918,4.08703 -0.0635,0.8279 -0.25646,1.66813 -0.62877,2.41031 -0.50146,0.99964 -3.85125,3.17007 -3.85125,3.17007"
               id="path1063"
               sodipodi:nodetypes="csssssssc" /><path
               style="fill:none;stroke:#000000;stroke-width:0.499999;stroke-dasharray:none;stroke-opacity:1;paint-order:fill markers stroke"
               d="m 122.40145,146.81887 c 0,0 2.02129,-1.152 3.14387,-1.36235 0.89335,-0.1674 1.88017,-0.23118 2.72469,0.1048 1.38012,0.54906 2.44537,1.75889 3.35347,2.93428 0.95511,1.23623 1.78462,2.66096 2.09592,4.19183 0.33478,1.64631 0.11116,3.40498 -0.31439,5.0302 -0.28494,1.08821 -0.65928,2.25629 -1.46714,3.03907 -0.98831,0.95763 -4.55862,1.15275 -4.55862,1.15275"
               id="path1065"
               sodipodi:nodetypes="cssssssc" /><path
               style="fill:none;fill-opacity:1;stroke:#000000;stroke-width:0.750001;stroke-linecap:round;stroke-dasharray:none;stroke-opacity:1;paint-order:fill markers stroke"
               d="m 136.92445,127.40434 -2.22877,1.43534"
               id="path4668-4"
               sodipodi:nodetypes="cc" /><path
               style="fill:none;stroke:#000000;stroke-width:0.499999;stroke-dasharray:none;stroke-opacity:1;paint-order:fill markers stroke"
               d="m 139.32597,126.48849 c -1.37148,-0.53525 -2.95038,-0.61566 -4.40142,-0.36679 -1.13264,0.19426 -2.34867,0.58514 -3.14388,1.41475 -0.4556,0.47531 -1.15824,1.49498 -0.62877,1.88632 1.54481,1.14179 3.1746,0.90844 4.54064,0.75527 1.50287,-0.16852 2.63047,-0.51593 4.00021,-1.22685 0.50852,-0.26393 1.12054,-0.79404 1.04796,-1.36235 -0.0757,-0.59261 -0.8582,-0.88315 -1.41474,-1.10035 z"
               id="path1067"
               sodipodi:nodetypes="ssssssss" /><path
               style="fill:none;stroke:#000000;stroke-width:0.499999;stroke-dasharray:none;stroke-opacity:1;paint-order:fill markers stroke"
               d="m 112.39346,124.65456 0.31438,-2.82948 c 0,0 1.38046,-1.17046 2.20072,-1.51954 1.04956,-0.44666 2.21326,-0.6491 3.35346,-0.68117 1.09381,-0.0308 2.27051,-0.0189 3.24867,0.47158 0.72865,0.36536 1.72913,1.72913 1.72913,1.72913 l 0.20959,2.3579 c 0,0 -0.67007,0.98541 -1.15275,1.30995 -0.70592,0.47464 -1.57059,0.7024 -2.4103,0.83836 -1.25874,0.2038 -2.56892,0.16695 -3.82505,-0.0524 -1.05559,-0.18433 -2.11834,-0.49979 -3.03908,-1.04796 -0.2443,-0.14545 -0.62877,-0.57637 -0.62877,-0.57637 z"
               id="path1069"
               sodipodi:nodetypes="ccsssccssssc" /><path
               style="fill:none;stroke:#000000;stroke-width:0.499999;stroke-dasharray:none;stroke-opacity:1;paint-order:fill markers stroke"
               d="m 100.76113,119.83396 c 0,0 1.21082,1.08281 1.93872,1.41474 0.78257,0.35686 1.65691,0.51913 2.5151,0.57638 1.13758,0.0759 2.29861,-0.0426 3.40586,-0.31439 0.71505,-0.1755 1.41464,-0.45547 2.04352,-0.83837 0.39159,-0.23842 1.04795,-0.89076 1.04795,-0.89076 l -0.15719,-2.09592 c 0,0 -0.65039,-1.10046 -1.15275,-1.46714 -0.64726,-0.47245 -1.47031,-0.66697 -2.25311,-0.83836 -0.68439,-0.14984 -1.39598,-0.18766 -2.09592,-0.1572 -0.86634,0.0377 -1.75723,0.11024 -2.56749,0.41919 -0.63835,0.2434 -1.23206,0.63166 -1.72913,1.10035 -0.28216,0.26605 -0.68117,0.94316 -0.68117,0.94316 z"
               id="path1071"
               sodipodi:nodetypes="cssssccssssscc" /><path
               style="fill:none;stroke:#000000;stroke-width:0.499999;stroke-dasharray:none;stroke-opacity:1;paint-order:fill markers stroke"
               d="m 106.70659,144.12799 c 0,0 -10.155854,-13.5799 -13.560632,-21.26721 -0.570253,-1.28752 -1.045797,-2.66898 -1.111528,-4.0756 -0.07374,-1.57796 0.278554,-3.18266 0.815121,-4.66842 0.928261,-2.57037 2.500089,-4.88078 4.075596,-7.11377 1.312869,-1.86075 2.855423,-3.55748 4.446113,-5.18712 1.85697,-1.90244 3.9042,-3.611587 5.92814,-5.335331 2.6079,-2.221095 5.23655,-4.426643 8.00299,-6.446856 2.39009,-1.745382 4.86439,-3.381478 7.41018,-4.89072 2.86092,-1.69606 5.79348,-3.285293 8.81812,-4.668414 3.47072,-1.587104 7.00731,-3.079831 10.67066,-4.149698 3.26426,-0.953313 6.61104,-1.768846 10.00374,-2.00075 2.02448,-0.138381 4.14584,-0.254683 6.07634,0.370509 1.44724,0.468691 2.90488,1.255951 3.8533,2.445358 1.0131,1.270523 1.39097,2.987032 1.63024,4.594313 0.0801,0.538045 -0.0741,1.630238 -0.0741,1.630238"
               id="path1073"
               sodipodi:nodetypes="cssssssssssssssc" /><path
               style="fill:none;stroke:#000000;stroke-width:0.499999;stroke-dasharray:none;stroke-opacity:1;paint-order:fill markers stroke"
               d="m 96.628743,107.2253 c 0,0 3.507007,-0.5601 5.187127,-1.11153 3.37185,-1.10667 6.53976,-2.77182 9.70733,-4.372 3.64257,-1.840142 7.23136,-3.805519 10.67066,-6.00225 3.48952,-2.228806 6.90472,-4.601968 10.07784,-7.261976 1.84733,-1.548602 3.4703,-3.346798 5.18713,-5.038923 1.59225,-1.569342 3.25452,-3.073995 4.74252,-4.742514 0.71378,-0.800372 2.00075,-2.51946 2.00075,-2.51946"
               id="path1075"
               sodipodi:nodetypes="cssssssc" /><path
               style="fill:none;stroke:#000000;stroke-width:0.499999;stroke-dasharray:none;stroke-opacity:1;paint-order:fill markers stroke"
               d="m 129.08533,105.96557 c 0,0 1.1605,0.39048 1.70434,0.66691 2.08905,1.06186 4.28388,2.10944 5.92814,3.7792 2.27988,2.31523 3.46835,5.49705 5.11303,8.2994 1.10263,1.87875 2.53118,3.62828 3.18637,5.70583 0.36592,1.16028 0.89847,2.5349 0.37051,3.63099 -0.71361,1.48149 -2.61802,2.06933 -4.1497,2.66767 -2.26573,0.8851 -4.76003,1.10957 -7.18787,1.25973 -2.96212,0.1832 -5.95281,-0.0352 -8.89222,-0.44461 -3.59036,-0.50003 -7.11896,-1.42206 -10.59655,-2.44536 -3.77771,-1.11161 -7.36301,-2.80678 -11.11527,-4.0015 -1.75878,-0.56 -3.677868,-0.6698 -5.335333,-1.48203 -1.410688,-0.6913 -2.955317,-1.47827 -3.779192,-2.81587 -0.749651,-1.21709 -0.744563,-2.79437 -0.741018,-4.2238 0.0045,-1.8072 0.233454,-3.68208 0.963324,-5.33534 0.42698,-0.96717 1.102127,-1.85771 1.926648,-2.51945 1.784053,-1.43184 4.076031,-2.10457 6.224551,-2.88997 2.11609,-0.77354 4.29456,-1.43297 6.52096,-1.77845 2.34525,-0.36392 4.74411,-0.42806 7.11377,-0.2964 0.64877,0.0361 1.92665,0.2964 1.92665,0.2964"
               id="path1077"
               sodipodi:nodetypes="cssssssssssssssssssc" /><path
               style="fill:none;stroke:#000000;stroke-width:0.499999;stroke-dasharray:none;stroke-opacity:1;paint-order:fill markers stroke"
               d="m 95.678534,127.69364 3.143872,-3.77265"
               id="path1079" /><path
               style="fill:none;stroke:#000000;stroke-width:0.499999;stroke-dasharray:none;stroke-opacity:1;paint-order:fill markers stroke"
               d="m 140.21673,112.49825 -3.14387,-2.04352 c 0,0 5.33827,-3.55193 7.79615,-5.60069 2.1604,-1.8008 4.17048,-3.78574 6.07635,-5.85404 1.77242,-1.923485 3.41009,-3.972998 4.96482,-6.076347 1.21757,-1.647214 2.48522,-3.284635 3.40868,-5.113024 0.68691,-1.360024 1.27894,-2.799683 1.55614,-4.297904 0.24271,-1.311797 0.44885,-2.721153 0.0741,-4.001497 -0.22516,-0.769259 -0.78901,-1.412844 -1.33383,-2.000749 -0.49035,-0.529136 -1.0791,-0.973954 -1.70434,-1.333832 -0.92227,-0.530848 -1.93253,-0.924284 -2.96407,-1.185629 -1.03653,-0.26261 -2.11728,-0.350468 -3.18638,-0.370509 -1.26338,-0.02368 -3.77919,0.296407 -3.77919,0.296407"
               id="path1081"
               sodipodi:nodetypes="ccssssssssssc" /><path
               style="fill:none;stroke:#000000;stroke-width:0.499999;stroke-dasharray:none;stroke-opacity:1;paint-order:fill markers stroke"
               d="m 115.70995,108.70733 c 0,0 -2.54021,1.35686 -3.29753,2.26011 -0.42952,0.51228 -0.70665,1.16301 -0.85217,1.81549 -0.11829,0.53038 -0.14278,1.10592 0,1.63024 0.128,0.47006 0.44521,0.87265 0.74102,1.25973 0.44016,0.57596 0.90596,1.16944 1.51909,1.55614 1.07032,0.67504 2.31526,1.06762 3.54154,1.37987 1.40882,0.35872 2.90245,0.45272 4.3503,0.58383 1.24236,0.11251 2.49876,0.13762 3.74214,0.037 1.29928,-0.10514 2.61678,-0.25435 3.85329,-0.66692 1.15793,-0.38635 2.26384,-0.96247 3.26048,-1.66729 0.79174,-0.55991 1.64569,-1.15046 2.1119,-2.00075 0.34469,-0.62866 0.42704,-1.39521 0.40756,-2.1119 -0.0152,-0.55993 -0.12322,-1.14764 -0.40756,-1.63024 -0.25727,-0.43666 -0.71349,-0.93329 -1.11152,-1.24702 -0.686,-0.54071 -0.88531,-0.60515 -1.63583,-1.052 -0.1804,-0.10741 -1.10594,-0.47979 -1.10594,-0.47979"
               id="path1188"
               sodipodi:nodetypes="csssssssssssssssc" /><path
               style="fill:none;stroke:#000000;stroke-width:0.499999;stroke-dasharray:none;stroke-opacity:1;paint-order:fill markers stroke"
               d="m 131.38248,109.59656 c 0,0 0.96256,0.76265 1.22268,1.29678 0.18048,0.3706 0.20367,0.81088 0.18526,1.22268 -0.0256,0.57156 -0.14018,1.16149 -0.40756,1.66729 -0.31061,0.58758 -0.80081,1.08503 -1.33383,1.48203 -0.62471,0.4653 -1.27776,0.85785 -2.00711,1.13137 -1.02136,0.38302 -2.1754,0.59621 -3.25412,0.75823 -1.06284,0.15964 -2.15138,0.15043 -3.22343,0.0741 -1.12401,-0.08 -2.24227,-0.27886 -3.33458,-0.55576 -1.17743,-0.29848 -2.40649,-0.55684 -3.44574,-1.18563 -0.78486,-0.47487 -1.55148,-1.08981 -2.00074,-1.8896 -0.29064,-0.51741 -0.48018,-1.15816 -0.37051,-1.74139 0.0956,-0.50833 0.53305,-0.88972 0.85217,-1.29678 0.29115,-0.37139 1.18563,-1.29679 1.18563,-1.29679"
               id="path1190"
               sodipodi:nodetypes="cssssssssssssc" /><path
               style="fill:none;stroke:#000000;stroke-width:0.499999;stroke-dasharray:none;stroke-opacity:1;paint-order:fill markers stroke"
               d="m 117.89596,107.1512 c 0,0 -1.42001,0.68346 -1.92665,1.25973 -0.28083,0.31942 -0.47961,0.73012 -0.55576,1.14857 -0.0977,0.53684 -0.0334,1.1157 0.1482,1.63024 0.19268,0.54588 0.51243,1.08194 0.96332,1.44499 0.71276,0.5739 1.68388,0.72488 2.55652,1.00037 0.89693,0.28316 1.80559,0.57602 2.74176,0.66692 1.36585,0.13263 2.75763,0.0317 4.11265,-0.18526 0.86102,-0.13784 1.71311,-0.37206 2.51946,-0.70396 0.79757,-0.32829 1.6757,-0.62541 2.26011,-1.25973 0.40446,-0.439 0.64006,-1.04192 0.74101,-1.63024 0.0482,-0.28102 -0.006,-0.57534 -0.0741,-0.85217 -0.0994,-0.40307 -0.22573,-0.82169 -0.48166,-1.14858 -0.37002,-0.47261 -0.93075,-0.7649 -1.44498,-1.07448 -0.2461,-0.14816 -0.77807,-0.3705 -0.77807,-0.3705"
               id="path1192"
               sodipodi:nodetypes="csssssssssssssc" /><path
               style="fill:none;stroke:#000000;stroke-width:0.499999;stroke-dasharray:none;stroke-opacity:1;paint-order:fill markers stroke"
               d="m 117.5625,106.11377 c -0.0553,-0.45778 0.20044,-0.93134 0.48166,-1.29678 0.31346,-0.40734 0.74304,-0.83 1.18113,-1.09881 0.63099,-0.38716 1.32619,-0.64014 2.0423,-0.82784 0.89632,-0.23494 1.98486,-0.26035 2.90981,-0.20509 0.84734,0.0506 1.598,0.19219 2.38847,0.5015 0.52954,0.20724 1.0018,0.56531 1.40793,0.96332 0.37939,0.37181 0.75716,0.79322 0.92627,1.29679 0.1416,0.42164 0.18389,0.914 0.037,1.33383 -0.17077,0.48808 -0.89876,0.96999 -1.34096,1.23803 -0.91989,0.55759 -1.87288,0.72358 -2.93973,0.86115 -1.00508,0.1296 -1.89995,0.0394 -2.90718,-0.0984 -0.72122,-0.0987 -1.45997,-0.23192 -2.1119,-0.55577 -0.51997,-0.2583 -0.97466,-0.3881 -1.37088,-0.81248 -0.28519,-0.30546 -0.65378,-0.88454 -0.70392,-1.29942 z"
               id="path1920"
               sodipodi:nodetypes="sssssssssssssss" /><path
               style="fill:none;stroke:#000000;stroke-width:0.499999;stroke-dasharray:none;stroke-opacity:1;paint-order:fill markers stroke"
               d="m 119.21971,103.76531 c 0,0 -0.80456,1.39268 -0.63514,1.80541 0.21619,0.52668 0.836,1.07461 1.34919,1.32112 0.83842,0.40273 1.6353,0.6663 2.55837,0.7807 0.82265,0.10195 1.84626,0.0107 2.6658,-0.11378 0.58736,-0.0892 1.16537,-0.31202 1.66729,-0.62987 0.42061,-0.26636 0.84125,-0.59758 1.07448,-1.03742 0.13507,-0.25472 0.15559,-0.56394 0.1482,-0.85217 -0.007,-0.27854 -0.26385,-1.10331 -0.26385,-1.10331"
               id="path1922"
               sodipodi:nodetypes="csssssssc" /><path
               style="fill:none;stroke:#000000;stroke-width:0.499999;stroke-dasharray:none;stroke-opacity:1;paint-order:fill markers stroke"
               d="m 120.66546,108.54959 -0.15319,0.65834 c -0.55315,0.0406 -0.69787,0.1894 -0.99495,0.43959"
               id="path1926"
               sodipodi:nodetypes="ccc" /><path
               style="fill:none;stroke:#000000;stroke-width:0.499999;stroke-dasharray:none;stroke-opacity:1;paint-order:fill markers stroke"
               d="m 126.67702,108.44798 v 0.66691 c 0.61836,0.23866 0.51296,0.1903 0.96333,0.57429"
               id="path1928"
               sodipodi:nodetypes="ccc" /><path
               style="fill:none;stroke:#000000;stroke-width:0.499999;stroke-dasharray:none;stroke-opacity:1;paint-order:fill markers stroke"
               d="m 120.08327,108.54736 c 0,0 -0.60643,0.31793 -0.68675,0.53048 -0.0895,0.23691 -0.0813,0.52677 0.0185,0.75955 0.1376,0.32108 0.43224,0.59832 0.71323,0.80585 0.38219,0.28227 0.82719,0.48442 1.28752,0.60208 0.87955,0.22482 1.87648,0.24788 2.77882,0.14815 0.66248,-0.0732 1.07197,-0.12933 1.68581,-0.38903 0.44491,-0.18823 0.77746,-0.29964 1.13006,-0.62986 0.50334,-0.47141 0.62921,-0.582 0.70397,-1.05596 0.08,-0.50705 -0.59745,-0.95868 -0.59745,-0.95868"
               id="path1930"
               sodipodi:nodetypes="cssssssssc" /><path
               style="fill:none;stroke:#000000;stroke-width:0.499999;stroke-dasharray:none;stroke-opacity:1;paint-order:fill markers stroke"
               d="m 95.73952,127.67739 c 0,0 8.85947,2.68817 13.33832,3.8533 3.70535,0.96391 7.41583,1.9462 11.18938,2.59356 1.95988,0.33622 5.92814,0.66692 5.92814,0.66692 l 0.37051,-2.96407"
               id="path1932"
               sodipodi:nodetypes="csscc" /><path
               style="fill:none;stroke:#000000;stroke-width:0.499999;stroke-dasharray:none;stroke-opacity:1;paint-order:fill markers stroke"
               d="m 146.72156,123.37949 c 0,0 1.61774,2.49911 1.85254,3.9274 0.10487,0.63791 0.0668,1.34842 -0.22231,1.92664 -0.28911,0.57822 -0.87642,0.96583 -1.40793,1.33383 -0.8356,0.57854 -1.80234,0.946 -2.74176,1.33384 -1.68952,0.69753 -3.42433,1.29515 -5.18713,1.77844 -1.87344,0.51363 -3.77058,1.01719 -5.70584,1.18563 -1.57565,0.13714 -3.1611,-0.12351 -4.74252,-0.14821 -0.81502,-0.0127 -2.44535,0 -2.44535,0"
               id="path1934"
               sodipodi:nodetypes="csssssssc" /><path
               style="fill:none;stroke:#000000;stroke-width:0.499999;stroke-dasharray:none;stroke-opacity:1;paint-order:fill markers stroke"
               d="m 169.61901,190.36751 c 0,0 -1.89214,-0.0767 -2.74177,-0.44461 -1.7455,-0.7558 -3.11443,-2.20145 -4.52021,-3.48278 -1.42087,-1.29508 -2.71923,-2.72833 -3.92739,-4.22381 -1.76124,-2.18007 -3.21925,-4.58862 -4.81662,-6.89146 -2.35865,-3.40033 -4.78714,-6.75451 -7.03967,-10.22605 -2.06373,-3.18057 -3.9133,-6.49557 -5.92814,-9.70734 -1.62391,-2.58859 -3.26343,-5.16825 -4.96482,-7.70658 -1.65958,-2.47596 -3.34208,-4.93852 -5.11303,-7.33608 -1.45318,-1.96736 -4.52021,-5.77994 -4.52021,-5.77994"
               id="path1936"
               sodipodi:nodetypes="cssssssssc" /><path
               style="fill:none;stroke:#000000;stroke-width:0.499999;stroke-dasharray:none;stroke-opacity:1;paint-order:fill markers stroke"
               d="m 116.93263,145.72118 c 0,0 -2.0723,-1.94973 -3.22342,-2.77882 -1.95931,-1.41118 -4.15998,-2.45297 -6.22456,-3.70509 -1.94883,-1.18192 -4.09677,-2.09871 -5.81699,-3.59393 -1.50257,-1.30604 -3.816238,-4.59431 -3.816238,-4.59431"
               id="path1938"
               sodipodi:nodetypes="csssc" /><path
               style="fill:none;stroke:#000000;stroke-width:0.499999;stroke-dasharray:none;stroke-opacity:1;paint-order:fill markers stroke"
               d="m 112.76024,121.92987 c 0,0 1.31297,1.27269 2.14832,1.57194 1.16929,0.41887 2.48503,0.33975 3.72024,0.20959 1.18828,-0.12521 2.41636,-0.35825 3.45826,-0.94316 0.37708,-0.21169 0.94317,-0.89077 0.94317,-0.89077"
               id="path1940"
               sodipodi:nodetypes="csssc" /><path
               style="fill:none;stroke:#000000;stroke-width:0.499999;stroke-dasharray:none;stroke-opacity:1;paint-order:fill markers stroke"
               d="m 111.50269,117.68564 c 0,0 -1.37375,1.16147 -2.20071,1.46714 -0.95709,0.35377 -2.02008,0.41989 -3.03908,0.36679 -1.01974,-0.0531 -2.03042,-0.32302 -2.98667,-0.68117 -0.76106,-0.28504 -2.14832,-1.15276 -2.14832,-1.15276"
               id="path1942"
               sodipodi:nodetypes="csssc" /><path
               style="fill:none;stroke:#000000;stroke-width:0.499999;stroke-dasharray:none;stroke-opacity:1;paint-order:fill markers stroke"
               d="m 117.89596,123.08308 -2.29716,-2.3342 4.70546,0.44461"
               id="path1944" /><path
               style="fill:none;stroke:#000000;stroke-width:0.499999;stroke-dasharray:none;stroke-opacity:1;paint-order:fill markers stroke"
               d="m 116.96968,121.7863 0.85217,-0.74102"
               id="path1946" /><path
               style="fill:none;stroke:#000000;stroke-width:0.499999;stroke-dasharray:none;stroke-opacity:1;paint-order:fill markers stroke"
               d="m 103.26085,117.11789 3.74214,1.51908 c 0,0 1.42791,-0.72716 1.37089,-1.37088 -0.0438,-0.49485 -0.73034,-0.78587 -1.22268,-0.85217 -0.40261,-0.0542 -0.82065,0.16776 -1.14858,0.40756 -0.36289,0.26536 -0.81512,1.07448 -0.81512,1.07448 0,0 0.61809,-0.7883 0.64258,-1.24477 0.0149,-0.27714 -0.56179,-0.49796 -0.80485,-0.63193 -0.48936,-0.0575 -0.74076,-0.019 -1.13451,0.20941 -0.30934,0.19038 -0.62987,0.88922 -0.62987,0.88922 z"
               id="path1948"
               sodipodi:nodetypes="ccssscsccc" /></g><text
             xml:space="preserve"
             style="font-weight:bold;font-size:7.05556px;font-family:sans-serif;-inkscape-font-specification:'sans-serif Bold';text-align:center;text-anchor:middle;fill:none;stroke:#000000;stroke-width:0.499999;stroke-dasharray:none;stroke-opacity:1;paint-order:fill markers stroke"
             x="105.44685"
             y="181.91992"
             id="text2730"><tspan
               sodipodi:role="line"
               id="tspan2728"
               style="font-style:normal;font-variant:normal;font-weight:normal;font-stretch:normal;font-size:7.05556px;font-family:sans-serif;-inkscape-font-specification:sans-serif;fill:#000000;fill-opacity:1;stroke:none;stroke-width:0.5"
               x="105.44685"
               y="181.91992">Greifen (Halten)</tspan></text><text
             xml:space="preserve"
             style="font-style:normal;font-variant:normal;font-weight:normal;font-stretch:normal;font-size:7.05556px;font-family:sans-serif;-inkscape-font-specification:sans-serif;text-align:center;text-anchor:middle;fill:#000000;fill-opacity:1;stroke:none;stroke-width:0.499999;stroke-dasharray:none;stroke-opacity:1;paint-order:fill markers stroke"
             x="80.034302"
             y="163.02394"
             id="text2784"><tspan
               sodipodi:role="line"
               id="tspan2782"
               style="stroke-width:0.5"
               x="80.034302"
               y="163.02394">(UI-) Auswählen</tspan></text><circle
             style="fill:#ffff26;fill-opacity:0.533243;stroke:#ffd400;stroke-width:0.725295;stroke-linejoin:bevel;stroke-dasharray:none;stroke-opacity:0.464043"
             id="path46-1"
             cx="124.10931"
             cy="156.12389"
             r="5.213326" /><circle
             style="fill:#ffff26;fill-opacity:0.533243;stroke:#ffd400;stroke-width:0.725295;stroke-linejoin:bevel;stroke-dasharray:none;stroke-opacity:0.464043"
             id="path46-1-8"
             cx="136.28014"
             cy="127.5489"
             r="5.213326" /><circle
             style="fill:#ffff26;fill-opacity:0.533243;stroke:#ffd400;stroke-width:0.725295;stroke-linejoin:bevel;stroke-dasharray:none;stroke-opacity:0.464043"
             id="path46-1-6"
             cx="102.41348"
             cy="140.24889"
             r="5.213326" /><circle
             style="fill:#ffff26;fill-opacity:0.533243;stroke:#ffd400;stroke-width:0.725295;stroke-linejoin:bevel;stroke-dasharray:none;stroke-opacity:0.464043"
             id="path46-1-4"
             cx="124.37389"
             cy="105.32388"
             r="5.213326" /><text
             xml:space="preserve"
             style="font-style:normal;font-variant:normal;font-weight:normal;font-stretch:normal;font-size:7.05556px;font-family:sans-serif;-inkscape-font-specification:sans-serif;text-align:center;text-anchor:middle;fill:#000000;fill-opacity:1;stroke:none;stroke-width:0.5;stroke-dasharray:none;stroke-opacity:1;paint-order:fill markers stroke"
             x="188.62262"
             y="125.22793"
             id="text2788"><tspan
               sodipodi:role="line"
               id="tspan2786"
               style="stroke-width:0.5;stroke-dasharray:none"
               x="188.62262"
               y="125.22793">Pause/Beenden</tspan></text><text
             xml:space="preserve"
             style="font-style:normal;font-variant:normal;font-weight:normal;font-stretch:normal;font-size:7.05556px;font-family:sans-serif;-inkscape-font-specification:sans-serif;text-align:center;text-anchor:middle;fill:#000000;fill-opacity:1;stroke:none;stroke-width:0.5;stroke-dasharray:none;stroke-opacity:1;paint-order:fill markers stroke"
             x="187.40343"
             y="96.319466"
             id="text2800"><tspan
               sodipodi:role="line"
               style="stroke-width:0.5;stroke-dasharray:none"
               x="187.40343"
               y="96.319466"
               id="tspan467">Rotieren/</tspan><tspan
               sodipodi:role="line"
               style="stroke-width:0.5;stroke-dasharray:none"
               x="187.40343"
               y="105.13892"
               id="tspan1">Teleportieren</tspan></text><text
             xml:space="preserve"
             style="font-style:normal;font-variant:normal;font-weight:normal;font-stretch:normal;font-size:7.05556px;font-family:sans-serif;-inkscape-font-specification:sans-serif;text-align:center;text-anchor:middle;fill:#000000;fill-opacity:1;stroke:none;stroke-width:0.499999;stroke-dasharray:none;stroke-opacity:1;paint-order:fill markers stroke"
             x="290.46863"
             y="55.203476"
             id="text2804"><tspan
               sodipodi:role="line"
               id="tspan2802"
               style="stroke-width:0.5"
               x="290.46863"
               y="55.203476"><tspan
                 style="font-style:normal;font-variant:normal;font-weight:bold;font-stretch:normal;font-family:sans-serif;-inkscape-font-specification:'sans-serif Bold'"
                 id="tspan5539">Nach Vorne Drücken (Halten):</tspan></tspan><tspan
               sodipodi:role="line"
               style="stroke-width:0.5"
               x="290.46863"
               y="64.022926"
               id="tspan2">    Teleport-Modus Aktivieren</tspan></text><text
             xml:space="preserve"
             style="font-style:normal;font-variant:normal;font-weight:normal;font-stretch:normal;font-size:7.05556px;font-family:sans-serif;-inkscape-font-specification:sans-serif;text-align:start;text-anchor:start;fill:#000000;fill-opacity:1;stroke:none;stroke-width:0.499999;stroke-dasharray:none;stroke-opacity:1;paint-order:fill markers stroke"
             x="238.16515"
             y="74.922829"
             id="text2808"><tspan
               sodipodi:role="line"
               style="text-align:start;text-anchor:start;stroke-width:0.5"
               x="238.16515"
               y="74.922829"
               id="tspan552"><tspan
   style="font-style:normal;font-variant:normal;font-weight:bold;font-stretch:normal;font-family:sans-serif;-inkscape-font-specification:'sans-serif Bold';text-align:start;text-anchor:start"
   id="tspan5535">Im Teleport-Modus Loslassen:</tspan> </tspan><tspan
               sodipodi:role="line"
               style="text-align:start;text-anchor:start;stroke-width:0.5"
               x="238.16515"
               y="83.742279"
               id="tspan666">       Teleport Durchführen</tspan></text><text
             xml:space="preserve"
             style="font-style:normal;font-variant:normal;font-weight:normal;font-stretch:normal;font-size:7.05556px;font-family:sans-serif;-inkscape-font-specification:sans-serif;text-align:center;text-anchor:middle;fill:#000000;fill-opacity:1;stroke:none;stroke-width:0.499999;stroke-dasharray:none;stroke-opacity:1;paint-order:fill markers stroke"
             x="313.72473"
             y="123.08306"
             id="text2812"><tspan
               sodipodi:role="line"
               id="tspan2810"
               style="stroke-width:0.5"
               x="313.72473"
               y="123.08306"><tspan
   style="font-style:normal;font-variant:normal;font-weight:bold;font-stretch:normal;font-family:sans-serif;-inkscape-font-specification:'sans-serif Bold'"
   id="tspan5531">Nach Links/Rechts Drücken:</tspan> Um 45° Drehen</tspan></text><text
             xml:space="preserve"
             style="font-style:normal;font-variant:normal;font-weight:normal;font-stretch:normal;font-size:7.05556px;font-family:sans-serif;-inkscape-font-specification:sans-serif;text-align:center;text-anchor:middle;fill:#000000;fill-opacity:1;stroke:none;stroke-width:0.499999;stroke-dasharray:none;stroke-opacity:1;paint-order:fill markers stroke"
             x="304.87256"
             y="133.80727"
             id="text3542"><tspan
               sodipodi:role="line"
               id="tspan3540"
               style="stroke-width:0.5"
               x="304.87256"
               y="133.80727"><tspan
   style="font-style:normal;font-variant:normal;font-weight:bold;font-stretch:normal;font-family:sans-serif;-inkscape-font-specification:'sans-serif Bold'"
   id="tspan5533">Nach Hinten Drücken:</tspan> Um 180° Drehen</tspan></text><text
             xml:space="preserve"
             style="font-style:normal;font-variant:normal;font-weight:normal;font-stretch:normal;font-size:7.05556px;font-family:sans-serif;-inkscape-font-specification:sans-serif;text-align:start;text-anchor:start;fill:#000000;fill-opacity:1;stroke:none;stroke-width:0.499999;stroke-dasharray:none;stroke-opacity:1;paint-order:fill markers stroke"
             x="238.16515"
             y="94.293434"
             id="text4272"><tspan
               sodipodi:role="line"
               style="text-align:start;text-anchor:start;stroke-width:0.5"
               x="238.16515"
               y="94.293434"
               id="tspan660"><tspan
   style="font-style:normal;font-variant:normal;font-weight:bold;font-stretch:normal;font-family:sans-serif;-inkscape-font-specification:'sans-serif Bold';text-align:start;text-anchor:start"
   id="tspan5541">Rotieren Im Teleport-Modus:</tspan> Richtung</tspan><tspan
               sodipodi:role="line"
               style="text-align:start;text-anchor:start;stroke-width:0.5"
               x="238.16515"
               y="103.11288"
               id="tspan672">       Nach Dem Teleport Auswählen</tspan></text><path
             style="fill:none;fill-opacity:1;stroke:#646464;stroke-width:0.75;stroke-dasharray:none;stroke-opacity:1;paint-order:fill markers stroke"
             d="m 102.11227,140.49701 -6.817361,15.56137"
             id="path4276" /><path
             style="fill:none;fill-opacity:1;stroke:#646464;stroke-width:0.750001;stroke-dasharray:none;stroke-opacity:1;paint-order:fill markers stroke"
             d="m 124.0464,105.37275 41.94162,-8.368655"
             id="path4656"
             sodipodi:nodetypes="cc" /><path
             style="fill:none;fill-opacity:1;stroke:#646464;stroke-width:0.750001;stroke-dasharray:none;stroke-opacity:1;paint-order:fill markers stroke"
             d="m 135.75449,127.75149 24.30539,-4.50785"
             id="path4662"
             sodipodi:nodetypes="cc" /><path
             style="fill:none;fill-opacity:1;stroke:#646464;stroke-width:0.750001;stroke-dasharray:none;stroke-opacity:1;paint-order:fill markers stroke"
             d="M 106.26198,174.73203 124.0464,155.16916"
             id="path4664" /><g
             id="g5527"
             transform="translate(0,-4.819374)"><path
               style="fill:none;fill-opacity:1;stroke:#000000;stroke-width:0.750001;stroke-linecap:butt;stroke-dasharray:none;stroke-opacity:1;paint-order:fill markers stroke"
               d="m 212.31621,96.112534 6.34015,0 11.89432,-38.289686 h 3.98224"
               id="path4725"
               sodipodi:nodetypes="cccc" /><path
               style="fill:none;fill-opacity:1;stroke:#000000;stroke-width:0.750001;stroke-linecap:butt;stroke-dasharray:none;stroke-opacity:1;paint-order:fill markers stroke"
               d="m 212.31621,98.037902 7.5453,0 10.68917,-20.766881 h 3.98224"
               id="path4727"
               sodipodi:nodetypes="cccc" /><path
               style="fill:none;fill-opacity:1;stroke:#000000;stroke-width:0.750001;stroke-linecap:butt;stroke-dasharray:none;stroke-opacity:1;paint-order:fill markers stroke"
               d="m 212.31621,99.935532 7.5453,0 11.43019,-3.447997 h 3.98224"
               id="path4729"
               sodipodi:nodetypes="cccc" /><path
               style="fill:none;fill-opacity:1;stroke:#000000;stroke-width:0.750001;stroke-linecap:butt;stroke-dasharray:none;stroke-opacity:1;paint-order:fill markers stroke"
               d="m 212.31621,102.19847 7.5453,0 10.68917,23.35096 h 3.98224"
               id="path4731"
               sodipodi:nodetypes="cccc" /><path
               style="fill:none;fill-opacity:1;stroke:#000000;stroke-width:0.750001;stroke-linecap:butt;stroke-dasharray:none;stroke-opacity:1;paint-order:fill markers stroke"
               d="m 212.31621,103.83411 6.02576,0 12.20871,32.22424 h 3.98224"
               id="path4733"
               sodipodi:nodetypes="cccc" /></g></g></g></g></g></svg>
