{
  "asset": {
    "generator": "Khronos glTF Blender I/O v1.6.8",
    "version": "2.0"
  },
  "scene": 0,
  "scenes": [
    {
      "name": "Scene",
      "nodes": [
        0
      ]
    }
  ],
  "nodes": [
    {
      "mesh": 0,
      "name": "sphere_gltf"
    }
  ],
  "materials": [
    {
      "doubleSided": true,
      "name": "brick_moss_001",
      "normalTexture": {
        "index": 0
      },
      "pbrMetallicRoughness": {
        "baseColorTexture": {
          "index": 1
        },
        "metallicFactor": 0,
        "metallicRoughnessTexture": {
          "index": 2
        }
      }
    }
  ],
  "meshes": [
    {
      "name": "Sphere.001",
      "primitives": [
        {
          "attributes": {
            "POSITION": 0,
            "NORMAL": 1,
            "TEXCOORD_0": 2
          },
          "indices": 3,
          "material": 0
        }
      ]
    }
  ],
  "textures": [
    {
      "sampler": 0,
      "source": 0
    },
    {
      "sampler": 0,
      "source": 1
    },
    {
      "sampler": 0,
      "source": 2
    }
  ],
  "images": [
    {
      "mimeType": "image/jpeg",
      "name": "brick_moss_001_nor_gl_8k",
      "uri": "textures/brick_moss_001_nor_gl_2k.jpg"
    },
    {
      "mimeType": "image/jpeg",
      "name": "brick_moss_001_diff_8k",
      "uri": "textures/brick_moss_001_diff_2k.jpg"
    },
    {
      "mimeType": "image/jpeg",
      "name": "brick_moss_001_rough_8k",
      "uri": "textures/brick_moss_001_rough_2k.jpg"
    }
  ],
  "accessors": [
    {
      "bufferView": 0,
      "componentType": 5126,
      "count": 53917,
      "max": [
        1.126451849937439,
        1.126381754875183,
        1.1267067193984985
      ],
      "min": [
        -1.1264512538909912,
        -1.1266342401504517,
        -1.1267030239105225
      ],
      "type": "VEC3"
    },
    {
      "bufferView": 1,
      "componentType": 5126,
      "count": 53917,
      "type": "VEC3"
    },
    {
      "bufferView": 2,
      "componentType": 5126,
      "count": 53917,
      "type": "VEC2"
    },
    {
      "bufferView": 3,
      "componentType": 5123,
      "count": 322170,
      "type": "SCALAR"
    }
  ],
  "bufferViews": [
    {
      "buffer": 0,
      "byteLength": 647004,
      "byteOffset": 0
    },
    {
      "buffer": 0,
      "byteLength": 647004,
      "byteOffset": 647004
    },
    {
      "buffer": 0,
      "byteLength": 431336,
      "byteOffset": 1294008
    },
    {
      "buffer": 0,
      "byteLength": 644340,
      "byteOffset": 1725344
    }
  ],
  "samplers": [
    {
      "magFilter": 9729,
      "minFilter": 9987
    }
  ],
  "buffers": [
    {
      "byteLength": 2369684,
      "uri": "brick_moss_001.bin"
    }
  ]
}